<mxfile host="65bd71144e">
    <diagram id="8IWKObmLZnJ67QTl06sC" name="矩阵变换的理解">
        <mxGraphModel dx="1700" dy="563" grid="1" gridSize="10" guides="1" tooltips="1" connect="1" arrows="1" fold="1" page="0" pageScale="1" pageWidth="827" pageHeight="1169" math="0" shadow="0">
            <root>
                <mxCell id="0"/>
                <mxCell id="1" parent="0"/>
                <mxCell id="-v-0ilIZoySxreV-l9_N-125" value="" style="endArrow=classic;html=1;strokeColor=#FFFFFF;strokeWidth=1;fontSize=22;fontColor=#FFFFFF;" parent="1" source="-v-0ilIZoySxreV-l9_N-126" edge="1">
                    <mxGeometry width="50" height="50" relative="1" as="geometry">
                        <mxPoint x="900" y="170" as="sourcePoint"/>
                        <mxPoint x="800" y="350" as="targetPoint"/>
                    </mxGeometry>
                </mxCell>
                <mxCell id="-v-0ilIZoySxreV-l9_N-126" value="坐标系&lt;br&gt;&lt;span style=&quot;font-size: 20px;&quot;&gt;[x1, x2] ^T是基于这个坐标系的&lt;/span&gt;" style="text;html=1;align=center;verticalAlign=middle;resizable=0;points=[];autosize=1;strokeColor=none;fillColor=none;fontSize=22;fontColor=#FFFFFF;" parent="1" vertex="1">
                    <mxGeometry x="800" y="140" width="300" height="70" as="geometry"/>
                </mxCell>
                <mxCell id="-v-0ilIZoySxreV-l9_N-128" value="" style="endArrow=classic;html=1;strokeColor=#FFFFFF;strokeWidth=1;fontSize=22;fontColor=#FFFFFF;" parent="1" source="-v-0ilIZoySxreV-l9_N-126" edge="1">
                    <mxGeometry width="50" height="50" relative="1" as="geometry">
                        <mxPoint x="990" y="190" as="sourcePoint"/>
                        <mxPoint x="1030" y="390" as="targetPoint"/>
                    </mxGeometry>
                </mxCell>
                <mxCell id="-v-0ilIZoySxreV-l9_N-129" value="" style="endArrow=classic;html=1;strokeColor=#FFFFFF;strokeWidth=1;fontSize=22;fontColor=#FFFFFF;entryX=0.333;entryY=0;entryDx=0;entryDy=0;entryPerimeter=0;exitX=-0.008;exitY=0.538;exitDx=0;exitDy=0;exitPerimeter=0;" parent="1" source="-v-0ilIZoySxreV-l9_N-130" target="-v-0ilIZoySxreV-l9_N-123" edge="1">
                    <mxGeometry width="50" height="50" relative="1" as="geometry">
                        <mxPoint x="1540" y="280" as="sourcePoint"/>
                        <mxPoint x="1590" y="230" as="targetPoint"/>
                    </mxGeometry>
                </mxCell>
                <mxCell id="-v-0ilIZoySxreV-l9_N-130" value="e1是坐标轴向量" style="text;html=1;align=center;verticalAlign=middle;resizable=0;points=[];autosize=1;strokeColor=none;fillColor=none;fontSize=22;fontColor=#FFFFFF;" parent="1" vertex="1">
                    <mxGeometry x="1500" y="280" width="180" height="40" as="geometry"/>
                </mxCell>
                <mxCell id="-v-0ilIZoySxreV-l9_N-132" value="" style="endArrow=classic;html=1;strokeColor=#FFFFFF;strokeWidth=1;fontSize=22;fontColor=#FFFFFF;entryX=0.333;entryY=0;entryDx=0;entryDy=0;entryPerimeter=0;exitX=0.014;exitY=0.625;exitDx=0;exitDy=0;exitPerimeter=0;" parent="1" source="-v-0ilIZoySxreV-l9_N-133" edge="1">
                    <mxGeometry width="50" height="50" relative="1" as="geometry">
                        <mxPoint x="1470" y="150" as="sourcePoint"/>
                        <mxPoint x="1429.9999999999998" y="400" as="targetPoint"/>
                    </mxGeometry>
                </mxCell>
                <mxCell id="-v-0ilIZoySxreV-l9_N-133" value="x1是标量" style="text;html=1;align=center;verticalAlign=middle;resizable=0;points=[];autosize=1;strokeColor=none;fillColor=none;fontSize=22;fontColor=#FFFFFF;" parent="1" vertex="1">
                    <mxGeometry x="1490" y="190" width="110" height="40" as="geometry"/>
                </mxCell>
                <mxCell id="-v-0ilIZoySxreV-l9_N-134" value="省略了坐标系E，只写出坐标值" style="text;html=1;align=center;verticalAlign=middle;resizable=0;points=[];autosize=1;strokeColor=none;fillColor=none;fontSize=22;fontColor=#FFFFFF;" parent="1" vertex="1">
                    <mxGeometry x="455" y="230" width="320" height="40" as="geometry"/>
                </mxCell>
                <mxCell id="-v-0ilIZoySxreV-l9_N-135" value="" style="endArrow=classic;html=1;strokeColor=#FFFFFF;strokeWidth=1;fontSize=22;fontColor=#FFFFFF;" parent="1" edge="1">
                    <mxGeometry width="50" height="50" relative="1" as="geometry">
                        <mxPoint x="610" y="280" as="sourcePoint"/>
                        <mxPoint x="640" y="350" as="targetPoint"/>
                    </mxGeometry>
                </mxCell>
                <mxCell id="-v-0ilIZoySxreV-l9_N-62" value="=" style="text;html=1;align=center;verticalAlign=middle;resizable=0;points=[];autosize=1;strokeColor=none;fillColor=none;fontSize=22;fontColor=#FFFFFF;" parent="1" vertex="1">
                    <mxGeometry x="670" y="400" width="40" height="40" as="geometry"/>
                </mxCell>
                <mxCell id="-v-0ilIZoySxreV-l9_N-83" value="" style="group" parent="1" vertex="1" connectable="0">
                    <mxGeometry x="730" y="361" width="92" height="120" as="geometry"/>
                </mxCell>
                <mxCell id="-v-0ilIZoySxreV-l9_N-58" value="" style="group;rotation=-180;" parent="-v-0ilIZoySxreV-l9_N-83" vertex="1" connectable="0">
                    <mxGeometry x="72" width="20" height="120" as="geometry"/>
                </mxCell>
                <mxCell id="-v-0ilIZoySxreV-l9_N-59" value="" style="endArrow=none;html=1;strokeColor=#FFFFFF;strokeWidth=1;fontSize=22;fontColor=#FFFFFF;" parent="-v-0ilIZoySxreV-l9_N-58" edge="1">
                    <mxGeometry width="50" height="50" relative="1" as="geometry">
                        <mxPoint x="20" as="sourcePoint"/>
                        <mxPoint x="20" y="120" as="targetPoint"/>
                    </mxGeometry>
                </mxCell>
                <mxCell id="-v-0ilIZoySxreV-l9_N-60" value="" style="endArrow=none;html=1;strokeColor=#FFFFFF;strokeWidth=1;fontSize=22;fontColor=#FFFFFF;" parent="-v-0ilIZoySxreV-l9_N-58" edge="1">
                    <mxGeometry width="50" height="50" relative="1" as="geometry">
                        <mxPoint x="20" as="sourcePoint"/>
                        <mxPoint as="targetPoint"/>
                    </mxGeometry>
                </mxCell>
                <mxCell id="-v-0ilIZoySxreV-l9_N-61" value="" style="endArrow=none;html=1;strokeColor=#FFFFFF;strokeWidth=1;fontSize=22;fontColor=#FFFFFF;" parent="-v-0ilIZoySxreV-l9_N-58" edge="1">
                    <mxGeometry width="50" height="50" relative="1" as="geometry">
                        <mxPoint x="20" y="120" as="sourcePoint"/>
                        <mxPoint y="120" as="targetPoint"/>
                    </mxGeometry>
                </mxCell>
                <mxCell id="-v-0ilIZoySxreV-l9_N-75" value="" style="group" parent="-v-0ilIZoySxreV-l9_N-83" vertex="1" connectable="0">
                    <mxGeometry width="50" height="120" as="geometry"/>
                </mxCell>
                <mxCell id="-v-0ilIZoySxreV-l9_N-76" value="" style="endArrow=none;html=1;strokeColor=#FFFFFF;strokeWidth=1;fontSize=22;fontColor=#FFFFFF;" parent="-v-0ilIZoySxreV-l9_N-75" edge="1">
                    <mxGeometry width="50" height="50" relative="1" as="geometry">
                        <mxPoint y="120" as="sourcePoint"/>
                        <mxPoint as="targetPoint"/>
                    </mxGeometry>
                </mxCell>
                <mxCell id="-v-0ilIZoySxreV-l9_N-77" value="" style="endArrow=none;html=1;strokeColor=#FFFFFF;strokeWidth=1;fontSize=22;fontColor=#FFFFFF;" parent="-v-0ilIZoySxreV-l9_N-75" edge="1">
                    <mxGeometry width="50" height="50" relative="1" as="geometry">
                        <mxPoint y="120" as="sourcePoint"/>
                        <mxPoint x="20" y="120" as="targetPoint"/>
                    </mxGeometry>
                </mxCell>
                <mxCell id="-v-0ilIZoySxreV-l9_N-78" value="" style="endArrow=none;html=1;strokeColor=#FFFFFF;strokeWidth=1;fontSize=22;fontColor=#FFFFFF;" parent="-v-0ilIZoySxreV-l9_N-75" edge="1">
                    <mxGeometry width="50" height="50" relative="1" as="geometry">
                        <mxPoint as="sourcePoint"/>
                        <mxPoint x="20" as="targetPoint"/>
                    </mxGeometry>
                </mxCell>
                <mxCell id="-v-0ilIZoySxreV-l9_N-79" value="1" style="text;html=1;align=center;verticalAlign=middle;resizable=0;points=[];autosize=1;strokeColor=none;fillColor=none;fontSize=22;fontColor=#FFFFFF;" parent="-v-0ilIZoySxreV-l9_N-75" vertex="1">
                    <mxGeometry x="5" y="20" width="40" height="40" as="geometry"/>
                </mxCell>
                <mxCell id="-v-0ilIZoySxreV-l9_N-80" value="0" style="text;html=1;align=center;verticalAlign=middle;resizable=0;points=[];autosize=1;strokeColor=none;fillColor=none;fontSize=22;fontColor=#FFFFFF;" parent="-v-0ilIZoySxreV-l9_N-75" vertex="1">
                    <mxGeometry x="5" y="70" width="40" height="40" as="geometry"/>
                </mxCell>
                <mxCell id="-v-0ilIZoySxreV-l9_N-81" value="0" style="text;html=1;align=center;verticalAlign=middle;resizable=0;points=[];autosize=1;strokeColor=none;fillColor=none;fontSize=22;fontColor=#FFFFFF;" parent="-v-0ilIZoySxreV-l9_N-83" vertex="1">
                    <mxGeometry x="50" y="21" width="40" height="40" as="geometry"/>
                </mxCell>
                <mxCell id="-v-0ilIZoySxreV-l9_N-82" value="1" style="text;html=1;align=center;verticalAlign=middle;resizable=0;points=[];autosize=1;strokeColor=none;fillColor=none;fontSize=22;fontColor=#FFFFFF;" parent="-v-0ilIZoySxreV-l9_N-83" vertex="1">
                    <mxGeometry x="50" y="70" width="40" height="40" as="geometry"/>
                </mxCell>
                <mxCell id="-v-0ilIZoySxreV-l9_N-88" value="" style="group" parent="1" vertex="1" connectable="0">
                    <mxGeometry x="600" y="360" width="60" height="120" as="geometry"/>
                </mxCell>
                <mxCell id="-v-0ilIZoySxreV-l9_N-51" value="" style="group" parent="-v-0ilIZoySxreV-l9_N-88" vertex="1" connectable="0">
                    <mxGeometry width="20" height="120" as="geometry"/>
                </mxCell>
                <mxCell id="-v-0ilIZoySxreV-l9_N-47" value="" style="endArrow=none;html=1;strokeColor=#FFFFFF;strokeWidth=1;fontSize=22;fontColor=#FFFFFF;" parent="-v-0ilIZoySxreV-l9_N-51" edge="1">
                    <mxGeometry width="50" height="50" relative="1" as="geometry">
                        <mxPoint y="120" as="sourcePoint"/>
                        <mxPoint as="targetPoint"/>
                    </mxGeometry>
                </mxCell>
                <mxCell id="-v-0ilIZoySxreV-l9_N-48" value="" style="endArrow=none;html=1;strokeColor=#FFFFFF;strokeWidth=1;fontSize=22;fontColor=#FFFFFF;" parent="-v-0ilIZoySxreV-l9_N-51" edge="1">
                    <mxGeometry width="50" height="50" relative="1" as="geometry">
                        <mxPoint y="120" as="sourcePoint"/>
                        <mxPoint x="20" y="120" as="targetPoint"/>
                    </mxGeometry>
                </mxCell>
                <mxCell id="-v-0ilIZoySxreV-l9_N-50" value="" style="endArrow=none;html=1;strokeColor=#FFFFFF;strokeWidth=1;fontSize=22;fontColor=#FFFFFF;" parent="-v-0ilIZoySxreV-l9_N-51" edge="1">
                    <mxGeometry width="50" height="50" relative="1" as="geometry">
                        <mxPoint as="sourcePoint"/>
                        <mxPoint x="20" as="targetPoint"/>
                    </mxGeometry>
                </mxCell>
                <mxCell id="-v-0ilIZoySxreV-l9_N-52" value="" style="group;rotation=-180;" parent="-v-0ilIZoySxreV-l9_N-88" vertex="1" connectable="0">
                    <mxGeometry x="40" width="20" height="120" as="geometry"/>
                </mxCell>
                <mxCell id="-v-0ilIZoySxreV-l9_N-53" value="" style="endArrow=none;html=1;strokeColor=#FFFFFF;strokeWidth=1;fontSize=22;fontColor=#FFFFFF;" parent="-v-0ilIZoySxreV-l9_N-52" edge="1">
                    <mxGeometry width="50" height="50" relative="1" as="geometry">
                        <mxPoint x="20" as="sourcePoint"/>
                        <mxPoint x="20" y="120" as="targetPoint"/>
                    </mxGeometry>
                </mxCell>
                <mxCell id="-v-0ilIZoySxreV-l9_N-54" value="" style="endArrow=none;html=1;strokeColor=#FFFFFF;strokeWidth=1;fontSize=22;fontColor=#FFFFFF;" parent="-v-0ilIZoySxreV-l9_N-52" edge="1">
                    <mxGeometry width="50" height="50" relative="1" as="geometry">
                        <mxPoint x="20" as="sourcePoint"/>
                        <mxPoint as="targetPoint"/>
                    </mxGeometry>
                </mxCell>
                <mxCell id="-v-0ilIZoySxreV-l9_N-55" value="" style="endArrow=none;html=1;strokeColor=#FFFFFF;strokeWidth=1;fontSize=22;fontColor=#FFFFFF;" parent="-v-0ilIZoySxreV-l9_N-52" edge="1">
                    <mxGeometry width="50" height="50" relative="1" as="geometry">
                        <mxPoint x="20" y="120" as="sourcePoint"/>
                        <mxPoint y="120" as="targetPoint"/>
                    </mxGeometry>
                </mxCell>
                <mxCell id="-v-0ilIZoySxreV-l9_N-56" value="x1" style="text;html=1;align=center;verticalAlign=middle;resizable=0;points=[];autosize=1;strokeColor=none;fillColor=none;fontSize=22;fontColor=#FFFFFF;" parent="-v-0ilIZoySxreV-l9_N-88" vertex="1">
                    <mxGeometry x="4" y="11" width="50" height="40" as="geometry"/>
                </mxCell>
                <mxCell id="-v-0ilIZoySxreV-l9_N-57" value="x2" style="text;html=1;align=center;verticalAlign=middle;resizable=0;points=[];autosize=1;strokeColor=none;fillColor=none;fontSize=22;fontColor=#FFFFFF;" parent="-v-0ilIZoySxreV-l9_N-88" vertex="1">
                    <mxGeometry x="4" y="60" width="50" height="40" as="geometry"/>
                </mxCell>
                <mxCell id="-v-0ilIZoySxreV-l9_N-89" value="" style="group" parent="1" vertex="1" connectable="0">
                    <mxGeometry x="840" y="360" width="60" height="120" as="geometry"/>
                </mxCell>
                <mxCell id="-v-0ilIZoySxreV-l9_N-90" value="" style="group" parent="-v-0ilIZoySxreV-l9_N-89" vertex="1" connectable="0">
                    <mxGeometry width="20" height="120" as="geometry"/>
                </mxCell>
                <mxCell id="-v-0ilIZoySxreV-l9_N-91" value="" style="endArrow=none;html=1;strokeColor=#FFFFFF;strokeWidth=1;fontSize=22;fontColor=#FFFFFF;" parent="-v-0ilIZoySxreV-l9_N-90" edge="1">
                    <mxGeometry width="50" height="50" relative="1" as="geometry">
                        <mxPoint y="120" as="sourcePoint"/>
                        <mxPoint as="targetPoint"/>
                    </mxGeometry>
                </mxCell>
                <mxCell id="-v-0ilIZoySxreV-l9_N-92" value="" style="endArrow=none;html=1;strokeColor=#FFFFFF;strokeWidth=1;fontSize=22;fontColor=#FFFFFF;" parent="-v-0ilIZoySxreV-l9_N-90" edge="1">
                    <mxGeometry width="50" height="50" relative="1" as="geometry">
                        <mxPoint y="120" as="sourcePoint"/>
                        <mxPoint x="20" y="120" as="targetPoint"/>
                    </mxGeometry>
                </mxCell>
                <mxCell id="-v-0ilIZoySxreV-l9_N-93" value="" style="endArrow=none;html=1;strokeColor=#FFFFFF;strokeWidth=1;fontSize=22;fontColor=#FFFFFF;" parent="-v-0ilIZoySxreV-l9_N-90" edge="1">
                    <mxGeometry width="50" height="50" relative="1" as="geometry">
                        <mxPoint as="sourcePoint"/>
                        <mxPoint x="20" as="targetPoint"/>
                    </mxGeometry>
                </mxCell>
                <mxCell id="-v-0ilIZoySxreV-l9_N-94" value="" style="group;rotation=-180;" parent="-v-0ilIZoySxreV-l9_N-89" vertex="1" connectable="0">
                    <mxGeometry x="40" width="20" height="120" as="geometry"/>
                </mxCell>
                <mxCell id="-v-0ilIZoySxreV-l9_N-95" value="" style="endArrow=none;html=1;strokeColor=#FFFFFF;strokeWidth=1;fontSize=22;fontColor=#FFFFFF;" parent="-v-0ilIZoySxreV-l9_N-94" edge="1">
                    <mxGeometry width="50" height="50" relative="1" as="geometry">
                        <mxPoint x="20" as="sourcePoint"/>
                        <mxPoint x="20" y="120" as="targetPoint"/>
                    </mxGeometry>
                </mxCell>
                <mxCell id="-v-0ilIZoySxreV-l9_N-96" value="" style="endArrow=none;html=1;strokeColor=#FFFFFF;strokeWidth=1;fontSize=22;fontColor=#FFFFFF;" parent="-v-0ilIZoySxreV-l9_N-94" edge="1">
                    <mxGeometry width="50" height="50" relative="1" as="geometry">
                        <mxPoint x="20" as="sourcePoint"/>
                        <mxPoint as="targetPoint"/>
                    </mxGeometry>
                </mxCell>
                <mxCell id="-v-0ilIZoySxreV-l9_N-97" value="" style="endArrow=none;html=1;strokeColor=#FFFFFF;strokeWidth=1;fontSize=22;fontColor=#FFFFFF;" parent="-v-0ilIZoySxreV-l9_N-94" edge="1">
                    <mxGeometry width="50" height="50" relative="1" as="geometry">
                        <mxPoint x="20" y="120" as="sourcePoint"/>
                        <mxPoint y="120" as="targetPoint"/>
                    </mxGeometry>
                </mxCell>
                <mxCell id="-v-0ilIZoySxreV-l9_N-98" value="x1" style="text;html=1;align=center;verticalAlign=middle;resizable=0;points=[];autosize=1;strokeColor=none;fillColor=none;fontSize=22;fontColor=#FFFFFF;" parent="-v-0ilIZoySxreV-l9_N-89" vertex="1">
                    <mxGeometry x="4" y="11" width="50" height="40" as="geometry"/>
                </mxCell>
                <mxCell id="-v-0ilIZoySxreV-l9_N-99" value="x2" style="text;html=1;align=center;verticalAlign=middle;resizable=0;points=[];autosize=1;strokeColor=none;fillColor=none;fontSize=22;fontColor=#FFFFFF;" parent="-v-0ilIZoySxreV-l9_N-89" vertex="1">
                    <mxGeometry x="4" y="60" width="50" height="40" as="geometry"/>
                </mxCell>
                <mxCell id="-v-0ilIZoySxreV-l9_N-100" value="" style="group" parent="1" vertex="1" connectable="0">
                    <mxGeometry x="1100" y="361" width="60" height="120" as="geometry"/>
                </mxCell>
                <mxCell id="-v-0ilIZoySxreV-l9_N-101" value="" style="group" parent="-v-0ilIZoySxreV-l9_N-100" vertex="1" connectable="0">
                    <mxGeometry width="20" height="120" as="geometry"/>
                </mxCell>
                <mxCell id="-v-0ilIZoySxreV-l9_N-102" value="" style="endArrow=none;html=1;strokeColor=#FFFFFF;strokeWidth=1;fontSize=22;fontColor=#FFFFFF;" parent="-v-0ilIZoySxreV-l9_N-101" edge="1">
                    <mxGeometry width="50" height="50" relative="1" as="geometry">
                        <mxPoint y="120" as="sourcePoint"/>
                        <mxPoint as="targetPoint"/>
                    </mxGeometry>
                </mxCell>
                <mxCell id="-v-0ilIZoySxreV-l9_N-103" value="" style="endArrow=none;html=1;strokeColor=#FFFFFF;strokeWidth=1;fontSize=22;fontColor=#FFFFFF;" parent="-v-0ilIZoySxreV-l9_N-101" edge="1">
                    <mxGeometry width="50" height="50" relative="1" as="geometry">
                        <mxPoint y="120" as="sourcePoint"/>
                        <mxPoint x="20" y="120" as="targetPoint"/>
                    </mxGeometry>
                </mxCell>
                <mxCell id="-v-0ilIZoySxreV-l9_N-104" value="" style="endArrow=none;html=1;strokeColor=#FFFFFF;strokeWidth=1;fontSize=22;fontColor=#FFFFFF;" parent="-v-0ilIZoySxreV-l9_N-101" edge="1">
                    <mxGeometry width="50" height="50" relative="1" as="geometry">
                        <mxPoint as="sourcePoint"/>
                        <mxPoint x="20" as="targetPoint"/>
                    </mxGeometry>
                </mxCell>
                <mxCell id="-v-0ilIZoySxreV-l9_N-105" value="" style="group;rotation=-180;" parent="-v-0ilIZoySxreV-l9_N-100" vertex="1" connectable="0">
                    <mxGeometry x="40" width="20" height="120" as="geometry"/>
                </mxCell>
                <mxCell id="-v-0ilIZoySxreV-l9_N-106" value="" style="endArrow=none;html=1;strokeColor=#FFFFFF;strokeWidth=1;fontSize=22;fontColor=#FFFFFF;" parent="-v-0ilIZoySxreV-l9_N-105" edge="1">
                    <mxGeometry width="50" height="50" relative="1" as="geometry">
                        <mxPoint x="20" as="sourcePoint"/>
                        <mxPoint x="20" y="120" as="targetPoint"/>
                    </mxGeometry>
                </mxCell>
                <mxCell id="-v-0ilIZoySxreV-l9_N-107" value="" style="endArrow=none;html=1;strokeColor=#FFFFFF;strokeWidth=1;fontSize=22;fontColor=#FFFFFF;" parent="-v-0ilIZoySxreV-l9_N-105" edge="1">
                    <mxGeometry width="50" height="50" relative="1" as="geometry">
                        <mxPoint x="20" as="sourcePoint"/>
                        <mxPoint as="targetPoint"/>
                    </mxGeometry>
                </mxCell>
                <mxCell id="-v-0ilIZoySxreV-l9_N-108" value="" style="endArrow=none;html=1;strokeColor=#FFFFFF;strokeWidth=1;fontSize=22;fontColor=#FFFFFF;" parent="-v-0ilIZoySxreV-l9_N-105" edge="1">
                    <mxGeometry width="50" height="50" relative="1" as="geometry">
                        <mxPoint x="20" y="120" as="sourcePoint"/>
                        <mxPoint y="120" as="targetPoint"/>
                    </mxGeometry>
                </mxCell>
                <mxCell id="-v-0ilIZoySxreV-l9_N-109" value="x1" style="text;html=1;align=center;verticalAlign=middle;resizable=0;points=[];autosize=1;strokeColor=none;fillColor=none;fontSize=22;fontColor=#FFFFFF;" parent="-v-0ilIZoySxreV-l9_N-100" vertex="1">
                    <mxGeometry x="4" y="11" width="50" height="40" as="geometry"/>
                </mxCell>
                <mxCell id="-v-0ilIZoySxreV-l9_N-110" value="x2" style="text;html=1;align=center;verticalAlign=middle;resizable=0;points=[];autosize=1;strokeColor=none;fillColor=none;fontSize=22;fontColor=#FFFFFF;" parent="-v-0ilIZoySxreV-l9_N-100" vertex="1">
                    <mxGeometry x="4" y="60" width="50" height="40" as="geometry"/>
                </mxCell>
                <mxCell id="-v-0ilIZoySxreV-l9_N-111" value="=" style="text;html=1;align=center;verticalAlign=middle;resizable=0;points=[];autosize=1;strokeColor=none;fillColor=none;fontSize=22;fontColor=#FFFFFF;" parent="1" vertex="1">
                    <mxGeometry x="930" y="400" width="40" height="40" as="geometry"/>
                </mxCell>
                <mxCell id="-v-0ilIZoySxreV-l9_N-112" value="" style="group" parent="1" vertex="1" connectable="0">
                    <mxGeometry x="980" y="400" width="60" height="40" as="geometry"/>
                </mxCell>
                <mxCell id="-v-0ilIZoySxreV-l9_N-113" value="" style="endArrow=none;html=1;strokeColor=#FFFFFF;strokeWidth=1;fontSize=22;fontColor=#FFFFFF;" parent="-v-0ilIZoySxreV-l9_N-112" edge="1">
                    <mxGeometry width="50" height="50" relative="1" as="geometry">
                        <mxPoint y="35" as="sourcePoint"/>
                        <mxPoint as="targetPoint"/>
                    </mxGeometry>
                </mxCell>
                <mxCell id="-v-0ilIZoySxreV-l9_N-114" value="" style="endArrow=none;html=1;strokeColor=#FFFFFF;strokeWidth=1;fontSize=22;fontColor=#FFFFFF;" parent="-v-0ilIZoySxreV-l9_N-112" edge="1">
                    <mxGeometry width="50" height="50" relative="1" as="geometry">
                        <mxPoint y="35" as="sourcePoint"/>
                        <mxPoint x="20" y="35" as="targetPoint"/>
                    </mxGeometry>
                </mxCell>
                <mxCell id="-v-0ilIZoySxreV-l9_N-115" value="" style="endArrow=none;html=1;strokeColor=#FFFFFF;strokeWidth=1;fontSize=22;fontColor=#FFFFFF;" parent="-v-0ilIZoySxreV-l9_N-112" edge="1">
                    <mxGeometry width="50" height="50" relative="1" as="geometry">
                        <mxPoint as="sourcePoint"/>
                        <mxPoint x="20" as="targetPoint"/>
                    </mxGeometry>
                </mxCell>
                <mxCell id="-v-0ilIZoySxreV-l9_N-120" value="e1" style="text;html=1;align=center;verticalAlign=middle;resizable=0;points=[];autosize=1;strokeColor=none;fillColor=none;fontSize=22;fontColor=#FFFFFF;" parent="-v-0ilIZoySxreV-l9_N-112" vertex="1">
                    <mxGeometry x="10" width="50" height="40" as="geometry"/>
                </mxCell>
                <mxCell id="-v-0ilIZoySxreV-l9_N-116" value="" style="group;rotation=-180;" parent="1" vertex="1" connectable="0">
                    <mxGeometry x="1060" y="426" width="20" height="40" as="geometry"/>
                </mxCell>
                <mxCell id="-v-0ilIZoySxreV-l9_N-117" value="" style="endArrow=none;html=1;strokeColor=#FFFFFF;strokeWidth=1;fontSize=22;fontColor=#FFFFFF;" parent="-v-0ilIZoySxreV-l9_N-116" edge="1">
                    <mxGeometry width="50" height="50" relative="1" as="geometry">
                        <mxPoint x="20" y="-26.666666666666664" as="sourcePoint"/>
                        <mxPoint x="20" y="13.333333333333332" as="targetPoint"/>
                    </mxGeometry>
                </mxCell>
                <mxCell id="-v-0ilIZoySxreV-l9_N-118" value="" style="endArrow=none;html=1;strokeColor=#FFFFFF;strokeWidth=1;fontSize=22;fontColor=#FFFFFF;" parent="-v-0ilIZoySxreV-l9_N-116" edge="1">
                    <mxGeometry width="50" height="50" relative="1" as="geometry">
                        <mxPoint x="20" y="-26.666666666666664" as="sourcePoint"/>
                        <mxPoint y="-26.666666666666664" as="targetPoint"/>
                    </mxGeometry>
                </mxCell>
                <mxCell id="-v-0ilIZoySxreV-l9_N-119" value="" style="endArrow=none;html=1;strokeColor=#FFFFFF;strokeWidth=1;fontSize=22;fontColor=#FFFFFF;" parent="-v-0ilIZoySxreV-l9_N-116" edge="1">
                    <mxGeometry width="50" height="50" relative="1" as="geometry">
                        <mxPoint x="20" y="13.333333333333332" as="sourcePoint"/>
                        <mxPoint y="13.333333333333332" as="targetPoint"/>
                    </mxGeometry>
                </mxCell>
                <mxCell id="-v-0ilIZoySxreV-l9_N-121" value="e2" style="text;html=1;align=center;verticalAlign=middle;resizable=0;points=[];autosize=1;strokeColor=none;fillColor=none;fontSize=22;fontColor=#FFFFFF;" parent="1" vertex="1">
                    <mxGeometry x="1030" y="400" width="50" height="40" as="geometry"/>
                </mxCell>
                <mxCell id="-v-0ilIZoySxreV-l9_N-122" value="=" style="text;html=1;align=center;verticalAlign=middle;resizable=0;points=[];autosize=1;strokeColor=none;fillColor=none;fontSize=22;fontColor=#FFFFFF;" parent="1" vertex="1">
                    <mxGeometry x="1180" y="401" width="40" height="40" as="geometry"/>
                </mxCell>
                <mxCell id="-v-0ilIZoySxreV-l9_N-123" value="x1*e1 + x2*e2" style="text;html=1;align=center;verticalAlign=middle;resizable=0;points=[];autosize=1;strokeColor=none;fillColor=none;fontSize=22;fontColor=#FFFFFF;" parent="1" vertex="1">
                    <mxGeometry x="1405" y="400" width="160" height="40" as="geometry"/>
                </mxCell>
                <mxCell id="-v-0ilIZoySxreV-l9_N-136" value="" style="group" parent="1" vertex="1" connectable="0">
                    <mxGeometry x="1300" y="360" width="60" height="120" as="geometry"/>
                </mxCell>
                <mxCell id="-v-0ilIZoySxreV-l9_N-137" value="" style="group" parent="-v-0ilIZoySxreV-l9_N-136" vertex="1" connectable="0">
                    <mxGeometry width="20" height="120" as="geometry"/>
                </mxCell>
                <mxCell id="-v-0ilIZoySxreV-l9_N-138" value="" style="endArrow=none;html=1;strokeColor=#FFFFFF;strokeWidth=1;fontSize=22;fontColor=#FFFFFF;" parent="-v-0ilIZoySxreV-l9_N-137" edge="1">
                    <mxGeometry width="50" height="50" relative="1" as="geometry">
                        <mxPoint y="120" as="sourcePoint"/>
                        <mxPoint as="targetPoint"/>
                    </mxGeometry>
                </mxCell>
                <mxCell id="-v-0ilIZoySxreV-l9_N-139" value="" style="endArrow=none;html=1;strokeColor=#FFFFFF;strokeWidth=1;fontSize=22;fontColor=#FFFFFF;" parent="-v-0ilIZoySxreV-l9_N-137" edge="1">
                    <mxGeometry width="50" height="50" relative="1" as="geometry">
                        <mxPoint y="120" as="sourcePoint"/>
                        <mxPoint x="20" y="120" as="targetPoint"/>
                    </mxGeometry>
                </mxCell>
                <mxCell id="-v-0ilIZoySxreV-l9_N-140" value="" style="endArrow=none;html=1;strokeColor=#FFFFFF;strokeWidth=1;fontSize=22;fontColor=#FFFFFF;" parent="-v-0ilIZoySxreV-l9_N-137" edge="1">
                    <mxGeometry width="50" height="50" relative="1" as="geometry">
                        <mxPoint as="sourcePoint"/>
                        <mxPoint x="20" as="targetPoint"/>
                    </mxGeometry>
                </mxCell>
                <mxCell id="-v-0ilIZoySxreV-l9_N-141" value="" style="group;rotation=-180;" parent="-v-0ilIZoySxreV-l9_N-136" vertex="1" connectable="0">
                    <mxGeometry x="40" width="20" height="120" as="geometry"/>
                </mxCell>
                <mxCell id="-v-0ilIZoySxreV-l9_N-142" value="" style="endArrow=none;html=1;strokeColor=#FFFFFF;strokeWidth=1;fontSize=22;fontColor=#FFFFFF;" parent="-v-0ilIZoySxreV-l9_N-141" edge="1">
                    <mxGeometry width="50" height="50" relative="1" as="geometry">
                        <mxPoint x="20" as="sourcePoint"/>
                        <mxPoint x="20" y="120" as="targetPoint"/>
                    </mxGeometry>
                </mxCell>
                <mxCell id="-v-0ilIZoySxreV-l9_N-143" value="" style="endArrow=none;html=1;strokeColor=#FFFFFF;strokeWidth=1;fontSize=22;fontColor=#FFFFFF;" parent="-v-0ilIZoySxreV-l9_N-141" edge="1">
                    <mxGeometry width="50" height="50" relative="1" as="geometry">
                        <mxPoint x="20" as="sourcePoint"/>
                        <mxPoint as="targetPoint"/>
                    </mxGeometry>
                </mxCell>
                <mxCell id="-v-0ilIZoySxreV-l9_N-144" value="" style="endArrow=none;html=1;strokeColor=#FFFFFF;strokeWidth=1;fontSize=22;fontColor=#FFFFFF;" parent="-v-0ilIZoySxreV-l9_N-141" edge="1">
                    <mxGeometry width="50" height="50" relative="1" as="geometry">
                        <mxPoint x="20" y="120" as="sourcePoint"/>
                        <mxPoint y="120" as="targetPoint"/>
                    </mxGeometry>
                </mxCell>
                <mxCell id="-v-0ilIZoySxreV-l9_N-145" value="x1" style="text;html=1;align=center;verticalAlign=middle;resizable=0;points=[];autosize=1;strokeColor=none;fillColor=none;fontSize=22;fontColor=#FFFFFF;" parent="-v-0ilIZoySxreV-l9_N-136" vertex="1">
                    <mxGeometry x="4" y="11" width="50" height="40" as="geometry"/>
                </mxCell>
                <mxCell id="-v-0ilIZoySxreV-l9_N-146" value="x2" style="text;html=1;align=center;verticalAlign=middle;resizable=0;points=[];autosize=1;strokeColor=none;fillColor=none;fontSize=22;fontColor=#FFFFFF;" parent="-v-0ilIZoySxreV-l9_N-136" vertex="1">
                    <mxGeometry x="4" y="60" width="50" height="40" as="geometry"/>
                </mxCell>
                <mxCell id="-v-0ilIZoySxreV-l9_N-147" value="E" style="text;html=1;align=center;verticalAlign=middle;resizable=0;points=[];autosize=1;strokeColor=none;fillColor=none;fontSize=49;fontColor=#FFFFFF;" parent="1" vertex="1">
                    <mxGeometry x="1230" y="386" width="60" height="70" as="geometry"/>
                </mxCell>
                <mxCell id="-v-0ilIZoySxreV-l9_N-148" value="=" style="text;html=1;align=center;verticalAlign=middle;resizable=0;points=[];autosize=1;strokeColor=none;fillColor=none;fontSize=22;fontColor=#FFFFFF;" parent="1" vertex="1">
                    <mxGeometry x="1380" y="401" width="40" height="40" as="geometry"/>
                </mxCell>
                <mxCell id="-v-0ilIZoySxreV-l9_N-151" value="" style="endArrow=classic;html=1;strokeColor=#FFFFFF;strokeWidth=1;fontSize=49;fontColor=#FFFFFF;entryX=0.428;entryY=-0.072;entryDx=0;entryDy=0;entryPerimeter=0;" parent="1" source="-v-0ilIZoySxreV-l9_N-152" target="-v-0ilIZoySxreV-l9_N-147" edge="1">
                    <mxGeometry width="50" height="50" relative="1" as="geometry">
                        <mxPoint x="1220" y="620" as="sourcePoint"/>
                        <mxPoint x="1250" y="480" as="targetPoint"/>
                    </mxGeometry>
                </mxCell>
                <mxCell id="-v-0ilIZoySxreV-l9_N-152" value="&lt;font style=&quot;font-size: 22px;&quot;&gt;这里E是单位正交矩阵，可以省&lt;/font&gt;&lt;font style=&quot;font-size: 23px;&quot;&gt;略&lt;/font&gt;" style="text;html=1;align=center;verticalAlign=middle;resizable=0;points=[];autosize=1;strokeColor=none;fillColor=none;fontSize=49;fontColor=#FFFFFF;" parent="1" vertex="1">
                    <mxGeometry x="1080" y="186" width="350" height="70" as="geometry"/>
                </mxCell>
                <mxCell id="-v-0ilIZoySxreV-l9_N-154" value="" style="group" parent="1" vertex="1" connectable="0">
                    <mxGeometry x="712" y="730" width="95" height="120" as="geometry"/>
                </mxCell>
                <mxCell id="-v-0ilIZoySxreV-l9_N-155" value="" style="group;rotation=-180;" parent="-v-0ilIZoySxreV-l9_N-154" vertex="1" connectable="0">
                    <mxGeometry x="72" width="20" height="120" as="geometry"/>
                </mxCell>
                <mxCell id="-v-0ilIZoySxreV-l9_N-156" value="" style="endArrow=none;html=1;strokeColor=#FFFFFF;strokeWidth=1;fontSize=22;fontColor=#FFFFFF;" parent="-v-0ilIZoySxreV-l9_N-155" edge="1">
                    <mxGeometry width="50" height="50" relative="1" as="geometry">
                        <mxPoint x="20" as="sourcePoint"/>
                        <mxPoint x="20" y="120" as="targetPoint"/>
                    </mxGeometry>
                </mxCell>
                <mxCell id="-v-0ilIZoySxreV-l9_N-157" value="" style="endArrow=none;html=1;strokeColor=#FFFFFF;strokeWidth=1;fontSize=22;fontColor=#FFFFFF;" parent="-v-0ilIZoySxreV-l9_N-155" edge="1">
                    <mxGeometry width="50" height="50" relative="1" as="geometry">
                        <mxPoint x="20" as="sourcePoint"/>
                        <mxPoint as="targetPoint"/>
                    </mxGeometry>
                </mxCell>
                <mxCell id="-v-0ilIZoySxreV-l9_N-158" value="" style="endArrow=none;html=1;strokeColor=#FFFFFF;strokeWidth=1;fontSize=22;fontColor=#FFFFFF;" parent="-v-0ilIZoySxreV-l9_N-155" edge="1">
                    <mxGeometry width="50" height="50" relative="1" as="geometry">
                        <mxPoint x="20" y="120" as="sourcePoint"/>
                        <mxPoint y="120" as="targetPoint"/>
                    </mxGeometry>
                </mxCell>
                <mxCell id="-v-0ilIZoySxreV-l9_N-159" value="" style="group" parent="-v-0ilIZoySxreV-l9_N-154" vertex="1" connectable="0">
                    <mxGeometry width="50" height="120" as="geometry"/>
                </mxCell>
                <mxCell id="-v-0ilIZoySxreV-l9_N-160" value="" style="endArrow=none;html=1;strokeColor=#FFFFFF;strokeWidth=1;fontSize=22;fontColor=#FFFFFF;" parent="-v-0ilIZoySxreV-l9_N-159" edge="1">
                    <mxGeometry width="50" height="50" relative="1" as="geometry">
                        <mxPoint y="120" as="sourcePoint"/>
                        <mxPoint as="targetPoint"/>
                    </mxGeometry>
                </mxCell>
                <mxCell id="-v-0ilIZoySxreV-l9_N-161" value="" style="endArrow=none;html=1;strokeColor=#FFFFFF;strokeWidth=1;fontSize=22;fontColor=#FFFFFF;" parent="-v-0ilIZoySxreV-l9_N-159" edge="1">
                    <mxGeometry width="50" height="50" relative="1" as="geometry">
                        <mxPoint y="120" as="sourcePoint"/>
                        <mxPoint x="20" y="120" as="targetPoint"/>
                    </mxGeometry>
                </mxCell>
                <mxCell id="-v-0ilIZoySxreV-l9_N-162" value="" style="endArrow=none;html=1;strokeColor=#FFFFFF;strokeWidth=1;fontSize=22;fontColor=#FFFFFF;" parent="-v-0ilIZoySxreV-l9_N-159" edge="1">
                    <mxGeometry width="50" height="50" relative="1" as="geometry">
                        <mxPoint as="sourcePoint"/>
                        <mxPoint x="20" as="targetPoint"/>
                    </mxGeometry>
                </mxCell>
                <mxCell id="-v-0ilIZoySxreV-l9_N-163" value="1.2" style="text;html=1;align=center;verticalAlign=middle;resizable=0;points=[];autosize=1;strokeColor=none;fillColor=none;fontSize=22;fontColor=#FFFFFF;" parent="-v-0ilIZoySxreV-l9_N-159" vertex="1">
                    <mxGeometry y="20" width="50" height="40" as="geometry"/>
                </mxCell>
                <mxCell id="-v-0ilIZoySxreV-l9_N-164" value="0.3" style="text;html=1;align=center;verticalAlign=middle;resizable=0;points=[];autosize=1;strokeColor=none;fillColor=none;fontSize=22;fontColor=#FFFFFF;" parent="-v-0ilIZoySxreV-l9_N-159" vertex="1">
                    <mxGeometry y="70" width="50" height="40" as="geometry"/>
                </mxCell>
                <mxCell id="-v-0ilIZoySxreV-l9_N-165" value="0.5" style="text;html=1;align=center;verticalAlign=middle;resizable=0;points=[];autosize=1;strokeColor=none;fillColor=none;fontSize=22;fontColor=#FFFFFF;" parent="-v-0ilIZoySxreV-l9_N-154" vertex="1">
                    <mxGeometry x="45" y="21" width="50" height="40" as="geometry"/>
                </mxCell>
                <mxCell id="-v-0ilIZoySxreV-l9_N-166" value="0.8" style="text;html=1;align=center;verticalAlign=middle;resizable=0;points=[];autosize=1;strokeColor=none;fillColor=none;fontSize=22;fontColor=#FFFFFF;" parent="-v-0ilIZoySxreV-l9_N-154" vertex="1">
                    <mxGeometry x="45" y="70" width="50" height="40" as="geometry"/>
                </mxCell>
                <mxCell id="-v-0ilIZoySxreV-l9_N-178" value="" style="group" parent="1" vertex="1" connectable="0">
                    <mxGeometry x="822" y="729" width="60" height="120" as="geometry"/>
                </mxCell>
                <mxCell id="-v-0ilIZoySxreV-l9_N-179" value="" style="group" parent="-v-0ilIZoySxreV-l9_N-178" vertex="1" connectable="0">
                    <mxGeometry width="20" height="120" as="geometry"/>
                </mxCell>
                <mxCell id="-v-0ilIZoySxreV-l9_N-180" value="" style="endArrow=none;html=1;strokeColor=#FFFFFF;strokeWidth=1;fontSize=22;fontColor=#FFFFFF;" parent="-v-0ilIZoySxreV-l9_N-179" edge="1">
                    <mxGeometry width="50" height="50" relative="1" as="geometry">
                        <mxPoint y="120" as="sourcePoint"/>
                        <mxPoint as="targetPoint"/>
                    </mxGeometry>
                </mxCell>
                <mxCell id="-v-0ilIZoySxreV-l9_N-181" value="" style="endArrow=none;html=1;strokeColor=#FFFFFF;strokeWidth=1;fontSize=22;fontColor=#FFFFFF;" parent="-v-0ilIZoySxreV-l9_N-179" edge="1">
                    <mxGeometry width="50" height="50" relative="1" as="geometry">
                        <mxPoint y="120" as="sourcePoint"/>
                        <mxPoint x="20" y="120" as="targetPoint"/>
                    </mxGeometry>
                </mxCell>
                <mxCell id="-v-0ilIZoySxreV-l9_N-182" value="" style="endArrow=none;html=1;strokeColor=#FFFFFF;strokeWidth=1;fontSize=22;fontColor=#FFFFFF;" parent="-v-0ilIZoySxreV-l9_N-179" edge="1">
                    <mxGeometry width="50" height="50" relative="1" as="geometry">
                        <mxPoint as="sourcePoint"/>
                        <mxPoint x="20" as="targetPoint"/>
                    </mxGeometry>
                </mxCell>
                <mxCell id="-v-0ilIZoySxreV-l9_N-183" value="" style="group;rotation=-180;" parent="-v-0ilIZoySxreV-l9_N-178" vertex="1" connectable="0">
                    <mxGeometry x="40" width="20" height="120" as="geometry"/>
                </mxCell>
                <mxCell id="-v-0ilIZoySxreV-l9_N-184" value="" style="endArrow=none;html=1;strokeColor=#FFFFFF;strokeWidth=1;fontSize=22;fontColor=#FFFFFF;" parent="-v-0ilIZoySxreV-l9_N-183" edge="1">
                    <mxGeometry width="50" height="50" relative="1" as="geometry">
                        <mxPoint x="20" as="sourcePoint"/>
                        <mxPoint x="20" y="120" as="targetPoint"/>
                    </mxGeometry>
                </mxCell>
                <mxCell id="-v-0ilIZoySxreV-l9_N-185" value="" style="endArrow=none;html=1;strokeColor=#FFFFFF;strokeWidth=1;fontSize=22;fontColor=#FFFFFF;" parent="-v-0ilIZoySxreV-l9_N-183" edge="1">
                    <mxGeometry width="50" height="50" relative="1" as="geometry">
                        <mxPoint x="20" as="sourcePoint"/>
                        <mxPoint as="targetPoint"/>
                    </mxGeometry>
                </mxCell>
                <mxCell id="-v-0ilIZoySxreV-l9_N-186" value="" style="endArrow=none;html=1;strokeColor=#FFFFFF;strokeWidth=1;fontSize=22;fontColor=#FFFFFF;" parent="-v-0ilIZoySxreV-l9_N-183" edge="1">
                    <mxGeometry width="50" height="50" relative="1" as="geometry">
                        <mxPoint x="20" y="120" as="sourcePoint"/>
                        <mxPoint y="120" as="targetPoint"/>
                    </mxGeometry>
                </mxCell>
                <mxCell id="-v-0ilIZoySxreV-l9_N-187" value="z1" style="text;html=1;align=center;verticalAlign=middle;resizable=0;points=[];autosize=1;strokeColor=none;fillColor=none;fontSize=22;fontColor=#FFFFFF;" parent="-v-0ilIZoySxreV-l9_N-178" vertex="1">
                    <mxGeometry x="4" y="11" width="50" height="40" as="geometry"/>
                </mxCell>
                <mxCell id="-v-0ilIZoySxreV-l9_N-188" value="z2" style="text;html=1;align=center;verticalAlign=middle;resizable=0;points=[];autosize=1;strokeColor=none;fillColor=none;fontSize=22;fontColor=#FFFFFF;" parent="-v-0ilIZoySxreV-l9_N-178" vertex="1">
                    <mxGeometry x="4" y="60" width="50" height="40" as="geometry"/>
                </mxCell>
                <mxCell id="-v-0ilIZoySxreV-l9_N-189" value="" style="group" parent="1" vertex="1" connectable="0">
                    <mxGeometry x="1082" y="730" width="60" height="120" as="geometry"/>
                </mxCell>
                <mxCell id="-v-0ilIZoySxreV-l9_N-190" value="" style="group" parent="-v-0ilIZoySxreV-l9_N-189" vertex="1" connectable="0">
                    <mxGeometry width="20" height="120" as="geometry"/>
                </mxCell>
                <mxCell id="-v-0ilIZoySxreV-l9_N-191" value="" style="endArrow=none;html=1;strokeColor=#FFFFFF;strokeWidth=1;fontSize=22;fontColor=#FFFFFF;" parent="-v-0ilIZoySxreV-l9_N-190" edge="1">
                    <mxGeometry width="50" height="50" relative="1" as="geometry">
                        <mxPoint y="120" as="sourcePoint"/>
                        <mxPoint as="targetPoint"/>
                    </mxGeometry>
                </mxCell>
                <mxCell id="-v-0ilIZoySxreV-l9_N-192" value="" style="endArrow=none;html=1;strokeColor=#FFFFFF;strokeWidth=1;fontSize=22;fontColor=#FFFFFF;" parent="-v-0ilIZoySxreV-l9_N-190" edge="1">
                    <mxGeometry width="50" height="50" relative="1" as="geometry">
                        <mxPoint y="120" as="sourcePoint"/>
                        <mxPoint x="20" y="120" as="targetPoint"/>
                    </mxGeometry>
                </mxCell>
                <mxCell id="-v-0ilIZoySxreV-l9_N-193" value="" style="endArrow=none;html=1;strokeColor=#FFFFFF;strokeWidth=1;fontSize=22;fontColor=#FFFFFF;" parent="-v-0ilIZoySxreV-l9_N-190" edge="1">
                    <mxGeometry width="50" height="50" relative="1" as="geometry">
                        <mxPoint as="sourcePoint"/>
                        <mxPoint x="20" as="targetPoint"/>
                    </mxGeometry>
                </mxCell>
                <mxCell id="-v-0ilIZoySxreV-l9_N-194" value="" style="group;rotation=-180;" parent="-v-0ilIZoySxreV-l9_N-189" vertex="1" connectable="0">
                    <mxGeometry x="40" width="20" height="120" as="geometry"/>
                </mxCell>
                <mxCell id="-v-0ilIZoySxreV-l9_N-195" value="" style="endArrow=none;html=1;strokeColor=#FFFFFF;strokeWidth=1;fontSize=22;fontColor=#FFFFFF;" parent="-v-0ilIZoySxreV-l9_N-194" edge="1">
                    <mxGeometry width="50" height="50" relative="1" as="geometry">
                        <mxPoint x="20" as="sourcePoint"/>
                        <mxPoint x="20" y="120" as="targetPoint"/>
                    </mxGeometry>
                </mxCell>
                <mxCell id="-v-0ilIZoySxreV-l9_N-196" value="" style="endArrow=none;html=1;strokeColor=#FFFFFF;strokeWidth=1;fontSize=22;fontColor=#FFFFFF;" parent="-v-0ilIZoySxreV-l9_N-194" edge="1">
                    <mxGeometry width="50" height="50" relative="1" as="geometry">
                        <mxPoint x="20" as="sourcePoint"/>
                        <mxPoint as="targetPoint"/>
                    </mxGeometry>
                </mxCell>
                <mxCell id="-v-0ilIZoySxreV-l9_N-197" value="" style="endArrow=none;html=1;strokeColor=#FFFFFF;strokeWidth=1;fontSize=22;fontColor=#FFFFFF;" parent="-v-0ilIZoySxreV-l9_N-194" edge="1">
                    <mxGeometry width="50" height="50" relative="1" as="geometry">
                        <mxPoint x="20" y="120" as="sourcePoint"/>
                        <mxPoint y="120" as="targetPoint"/>
                    </mxGeometry>
                </mxCell>
                <mxCell id="-v-0ilIZoySxreV-l9_N-198" value="z1" style="text;html=1;align=center;verticalAlign=middle;resizable=0;points=[];autosize=1;strokeColor=none;fillColor=none;fontSize=22;fontColor=#FFFFFF;" parent="-v-0ilIZoySxreV-l9_N-189" vertex="1">
                    <mxGeometry x="4" y="11" width="50" height="40" as="geometry"/>
                </mxCell>
                <mxCell id="-v-0ilIZoySxreV-l9_N-199" value="z2" style="text;html=1;align=center;verticalAlign=middle;resizable=0;points=[];autosize=1;strokeColor=none;fillColor=none;fontSize=22;fontColor=#FFFFFF;" parent="-v-0ilIZoySxreV-l9_N-189" vertex="1">
                    <mxGeometry x="4" y="60" width="50" height="40" as="geometry"/>
                </mxCell>
                <mxCell id="-v-0ilIZoySxreV-l9_N-200" value="=" style="text;html=1;align=center;verticalAlign=middle;resizable=0;points=[];autosize=1;strokeColor=none;fillColor=none;fontSize=22;fontColor=#FFFFFF;" parent="1" vertex="1">
                    <mxGeometry x="912" y="769" width="40" height="40" as="geometry"/>
                </mxCell>
                <mxCell id="-v-0ilIZoySxreV-l9_N-201" value="" style="group" parent="1" vertex="1" connectable="0">
                    <mxGeometry x="962" y="769" width="60" height="40" as="geometry"/>
                </mxCell>
                <mxCell id="-v-0ilIZoySxreV-l9_N-202" value="" style="endArrow=none;html=1;strokeColor=#FFFFFF;strokeWidth=1;fontSize=22;fontColor=#FFFFFF;" parent="-v-0ilIZoySxreV-l9_N-201" edge="1">
                    <mxGeometry width="50" height="50" relative="1" as="geometry">
                        <mxPoint y="35" as="sourcePoint"/>
                        <mxPoint as="targetPoint"/>
                    </mxGeometry>
                </mxCell>
                <mxCell id="-v-0ilIZoySxreV-l9_N-203" value="" style="endArrow=none;html=1;strokeColor=#FFFFFF;strokeWidth=1;fontSize=22;fontColor=#FFFFFF;" parent="-v-0ilIZoySxreV-l9_N-201" edge="1">
                    <mxGeometry width="50" height="50" relative="1" as="geometry">
                        <mxPoint y="35" as="sourcePoint"/>
                        <mxPoint x="20" y="35" as="targetPoint"/>
                    </mxGeometry>
                </mxCell>
                <mxCell id="-v-0ilIZoySxreV-l9_N-204" value="" style="endArrow=none;html=1;strokeColor=#FFFFFF;strokeWidth=1;fontSize=22;fontColor=#FFFFFF;" parent="-v-0ilIZoySxreV-l9_N-201" edge="1">
                    <mxGeometry width="50" height="50" relative="1" as="geometry">
                        <mxPoint as="sourcePoint"/>
                        <mxPoint x="20" as="targetPoint"/>
                    </mxGeometry>
                </mxCell>
                <mxCell id="-v-0ilIZoySxreV-l9_N-205" value="v1" style="text;html=1;align=center;verticalAlign=middle;resizable=0;points=[];autosize=1;strokeColor=none;fillColor=none;fontSize=22;fontColor=#FFFFFF;" parent="-v-0ilIZoySxreV-l9_N-201" vertex="1">
                    <mxGeometry x="10" width="50" height="40" as="geometry"/>
                </mxCell>
                <mxCell id="-v-0ilIZoySxreV-l9_N-206" value="" style="group;rotation=-180;" parent="1" vertex="1" connectable="0">
                    <mxGeometry x="1042" y="795" width="20" height="40" as="geometry"/>
                </mxCell>
                <mxCell id="-v-0ilIZoySxreV-l9_N-207" value="" style="endArrow=none;html=1;strokeColor=#FFFFFF;strokeWidth=1;fontSize=22;fontColor=#FFFFFF;" parent="-v-0ilIZoySxreV-l9_N-206" edge="1">
                    <mxGeometry width="50" height="50" relative="1" as="geometry">
                        <mxPoint x="20" y="-26.666666666666664" as="sourcePoint"/>
                        <mxPoint x="20" y="13.333333333333332" as="targetPoint"/>
                    </mxGeometry>
                </mxCell>
                <mxCell id="-v-0ilIZoySxreV-l9_N-208" value="" style="endArrow=none;html=1;strokeColor=#FFFFFF;strokeWidth=1;fontSize=22;fontColor=#FFFFFF;" parent="-v-0ilIZoySxreV-l9_N-206" edge="1">
                    <mxGeometry width="50" height="50" relative="1" as="geometry">
                        <mxPoint x="20" y="-26.666666666666664" as="sourcePoint"/>
                        <mxPoint y="-26.666666666666664" as="targetPoint"/>
                    </mxGeometry>
                </mxCell>
                <mxCell id="-v-0ilIZoySxreV-l9_N-209" value="" style="endArrow=none;html=1;strokeColor=#FFFFFF;strokeWidth=1;fontSize=22;fontColor=#FFFFFF;" parent="-v-0ilIZoySxreV-l9_N-206" edge="1">
                    <mxGeometry width="50" height="50" relative="1" as="geometry">
                        <mxPoint x="20" y="13.333333333333332" as="sourcePoint"/>
                        <mxPoint y="13.333333333333332" as="targetPoint"/>
                    </mxGeometry>
                </mxCell>
                <mxCell id="-v-0ilIZoySxreV-l9_N-210" value="v2" style="text;html=1;align=center;verticalAlign=middle;resizable=0;points=[];autosize=1;strokeColor=none;fillColor=none;fontSize=22;fontColor=#FFFFFF;" parent="1" vertex="1">
                    <mxGeometry x="1012" y="769" width="50" height="40" as="geometry"/>
                </mxCell>
                <mxCell id="-v-0ilIZoySxreV-l9_N-211" value="=" style="text;html=1;align=center;verticalAlign=middle;resizable=0;points=[];autosize=1;strokeColor=none;fillColor=none;fontSize=22;fontColor=#FFFFFF;" parent="1" vertex="1">
                    <mxGeometry x="1162" y="770" width="40" height="40" as="geometry"/>
                </mxCell>
                <mxCell id="-v-0ilIZoySxreV-l9_N-212" value="z1*v1 + z2*v2" style="text;html=1;align=center;verticalAlign=middle;resizable=0;points=[];autosize=1;strokeColor=none;fillColor=none;fontSize=22;fontColor=#FFFFFF;" parent="1" vertex="1">
                    <mxGeometry x="1387" y="769" width="160" height="40" as="geometry"/>
                </mxCell>
                <mxCell id="-v-0ilIZoySxreV-l9_N-213" value="" style="group" parent="1" vertex="1" connectable="0">
                    <mxGeometry x="1282" y="729" width="60" height="120" as="geometry"/>
                </mxCell>
                <mxCell id="-v-0ilIZoySxreV-l9_N-214" value="" style="group" parent="-v-0ilIZoySxreV-l9_N-213" vertex="1" connectable="0">
                    <mxGeometry width="20" height="120" as="geometry"/>
                </mxCell>
                <mxCell id="-v-0ilIZoySxreV-l9_N-215" value="" style="endArrow=none;html=1;strokeColor=#FFFFFF;strokeWidth=1;fontSize=22;fontColor=#FFFFFF;" parent="-v-0ilIZoySxreV-l9_N-214" edge="1">
                    <mxGeometry width="50" height="50" relative="1" as="geometry">
                        <mxPoint y="120" as="sourcePoint"/>
                        <mxPoint as="targetPoint"/>
                    </mxGeometry>
                </mxCell>
                <mxCell id="-v-0ilIZoySxreV-l9_N-216" value="" style="endArrow=none;html=1;strokeColor=#FFFFFF;strokeWidth=1;fontSize=22;fontColor=#FFFFFF;" parent="-v-0ilIZoySxreV-l9_N-214" edge="1">
                    <mxGeometry width="50" height="50" relative="1" as="geometry">
                        <mxPoint y="120" as="sourcePoint"/>
                        <mxPoint x="20" y="120" as="targetPoint"/>
                    </mxGeometry>
                </mxCell>
                <mxCell id="-v-0ilIZoySxreV-l9_N-217" value="" style="endArrow=none;html=1;strokeColor=#FFFFFF;strokeWidth=1;fontSize=22;fontColor=#FFFFFF;" parent="-v-0ilIZoySxreV-l9_N-214" edge="1">
                    <mxGeometry width="50" height="50" relative="1" as="geometry">
                        <mxPoint as="sourcePoint"/>
                        <mxPoint x="20" as="targetPoint"/>
                    </mxGeometry>
                </mxCell>
                <mxCell id="-v-0ilIZoySxreV-l9_N-218" value="" style="group;rotation=-180;" parent="-v-0ilIZoySxreV-l9_N-213" vertex="1" connectable="0">
                    <mxGeometry x="40" width="20" height="120" as="geometry"/>
                </mxCell>
                <mxCell id="-v-0ilIZoySxreV-l9_N-219" value="" style="endArrow=none;html=1;strokeColor=#FFFFFF;strokeWidth=1;fontSize=22;fontColor=#FFFFFF;" parent="-v-0ilIZoySxreV-l9_N-218" edge="1">
                    <mxGeometry width="50" height="50" relative="1" as="geometry">
                        <mxPoint x="20" as="sourcePoint"/>
                        <mxPoint x="20" y="120" as="targetPoint"/>
                    </mxGeometry>
                </mxCell>
                <mxCell id="-v-0ilIZoySxreV-l9_N-220" value="" style="endArrow=none;html=1;strokeColor=#FFFFFF;strokeWidth=1;fontSize=22;fontColor=#FFFFFF;" parent="-v-0ilIZoySxreV-l9_N-218" edge="1">
                    <mxGeometry width="50" height="50" relative="1" as="geometry">
                        <mxPoint x="20" as="sourcePoint"/>
                        <mxPoint as="targetPoint"/>
                    </mxGeometry>
                </mxCell>
                <mxCell id="-v-0ilIZoySxreV-l9_N-221" value="" style="endArrow=none;html=1;strokeColor=#FFFFFF;strokeWidth=1;fontSize=22;fontColor=#FFFFFF;" parent="-v-0ilIZoySxreV-l9_N-218" edge="1">
                    <mxGeometry width="50" height="50" relative="1" as="geometry">
                        <mxPoint x="20" y="120" as="sourcePoint"/>
                        <mxPoint y="120" as="targetPoint"/>
                    </mxGeometry>
                </mxCell>
                <mxCell id="-v-0ilIZoySxreV-l9_N-222" value="z1" style="text;html=1;align=center;verticalAlign=middle;resizable=0;points=[];autosize=1;strokeColor=none;fillColor=none;fontSize=22;fontColor=#FFFFFF;" parent="-v-0ilIZoySxreV-l9_N-213" vertex="1">
                    <mxGeometry x="4" y="11" width="50" height="40" as="geometry"/>
                </mxCell>
                <mxCell id="-v-0ilIZoySxreV-l9_N-223" value="z2" style="text;html=1;align=center;verticalAlign=middle;resizable=0;points=[];autosize=1;strokeColor=none;fillColor=none;fontSize=22;fontColor=#FFFFFF;" parent="-v-0ilIZoySxreV-l9_N-213" vertex="1">
                    <mxGeometry x="4" y="60" width="50" height="40" as="geometry"/>
                </mxCell>
                <mxCell id="-v-0ilIZoySxreV-l9_N-224" value="V" style="text;html=1;align=center;verticalAlign=middle;resizable=0;points=[];autosize=1;strokeColor=none;fillColor=none;fontSize=49;fontColor=#FFFFFF;" parent="1" vertex="1">
                    <mxGeometry x="1212" y="755" width="60" height="70" as="geometry"/>
                </mxCell>
                <mxCell id="-v-0ilIZoySxreV-l9_N-225" value="=" style="text;html=1;align=center;verticalAlign=middle;resizable=0;points=[];autosize=1;strokeColor=none;fillColor=none;fontSize=22;fontColor=#FFFFFF;" parent="1" vertex="1">
                    <mxGeometry x="1362" y="770" width="40" height="40" as="geometry"/>
                </mxCell>
                <mxCell id="-v-0ilIZoySxreV-l9_N-226" value="" style="group" parent="1" vertex="1" connectable="0">
                    <mxGeometry x="10" y="690" width="316" height="222" as="geometry"/>
                </mxCell>
                <mxCell id="-v-0ilIZoySxreV-l9_N-19" value="" style="ellipse;whiteSpace=wrap;html=1;aspect=fixed;strokeColor=#FFFFFF;fontColor=#FFFFFF;fillColor=#00FF00;" parent="-v-0ilIZoySxreV-l9_N-226" vertex="1">
                    <mxGeometry x="178" y="51" width="10" height="10" as="geometry"/>
                </mxCell>
                <mxCell id="-v-0ilIZoySxreV-l9_N-26" value="" style="group" parent="-v-0ilIZoySxreV-l9_N-226" vertex="1" connectable="0">
                    <mxGeometry width="316" height="222" as="geometry"/>
                </mxCell>
                <mxCell id="-v-0ilIZoySxreV-l9_N-17" value="" style="endArrow=none;html=1;strokeColor=#FFFFFF;strokeWidth=1;fontColor=#FFFFFF;" parent="-v-0ilIZoySxreV-l9_N-26" edge="1">
                    <mxGeometry width="50" height="50" relative="1" as="geometry">
                        <mxPoint x="35" y="190" as="sourcePoint"/>
                        <mxPoint x="315" y="190" as="targetPoint"/>
                    </mxGeometry>
                </mxCell>
                <mxCell id="-v-0ilIZoySxreV-l9_N-18" value="" style="endArrow=none;html=1;strokeColor=#FFFFFF;strokeWidth=1;fontColor=#FFFFFF;" parent="-v-0ilIZoySxreV-l9_N-26" edge="1">
                    <mxGeometry width="50" height="50" relative="1" as="geometry">
                        <mxPoint x="35" y="190" as="sourcePoint"/>
                        <mxPoint x="35" as="targetPoint"/>
                    </mxGeometry>
                </mxCell>
                <mxCell id="-v-0ilIZoySxreV-l9_N-3" value="" style="endArrow=classic;html=1;strokeWidth=1;" parent="-v-0ilIZoySxreV-l9_N-26" edge="1">
                    <mxGeometry width="50" height="50" relative="1" as="geometry">
                        <mxPoint x="35" y="190" as="sourcePoint"/>
                        <mxPoint x="35" y="100" as="targetPoint"/>
                    </mxGeometry>
                </mxCell>
                <mxCell id="-v-0ilIZoySxreV-l9_N-4" value="" style="endArrow=classic;html=1;strokeWidth=1;" parent="-v-0ilIZoySxreV-l9_N-26" edge="1">
                    <mxGeometry width="50" height="50" relative="1" as="geometry">
                        <mxPoint x="35" y="190" as="sourcePoint"/>
                        <mxPoint x="135" y="190" as="targetPoint"/>
                    </mxGeometry>
                </mxCell>
                <mxCell id="-v-0ilIZoySxreV-l9_N-5" value="e1" style="text;html=1;align=center;verticalAlign=middle;resizable=0;points=[];autosize=1;strokeColor=none;fillColor=none;fontSize=20;" parent="-v-0ilIZoySxreV-l9_N-26" vertex="1">
                    <mxGeometry x="107" y="184" width="50" height="40" as="geometry"/>
                </mxCell>
                <mxCell id="-v-0ilIZoySxreV-l9_N-6" value="&lt;font style=&quot;font-size: 20px;&quot;&gt;e2&lt;/font&gt;" style="text;html=1;align=center;verticalAlign=middle;resizable=0;points=[];autosize=1;strokeColor=none;fillColor=none;" parent="-v-0ilIZoySxreV-l9_N-26" vertex="1">
                    <mxGeometry x="-8" y="85" width="50" height="40" as="geometry"/>
                </mxCell>
                <mxCell id="-v-0ilIZoySxreV-l9_N-27" value="" style="group" parent="-v-0ilIZoySxreV-l9_N-26" vertex="1" connectable="0">
                    <mxGeometry x="34.5" y="41" width="281.5" height="181" as="geometry"/>
                </mxCell>
                <mxCell id="-v-0ilIZoySxreV-l9_N-12" value="v2" style="text;html=1;align=center;verticalAlign=middle;resizable=0;points=[];autosize=1;fontColor=#FF0000;rotation=-11;fontSize=20;" parent="-v-0ilIZoySxreV-l9_N-27" vertex="1">
                    <mxGeometry x="20" y="50.579999999999984" width="40" height="40" as="geometry"/>
                </mxCell>
                <mxCell id="-v-0ilIZoySxreV-l9_N-21" value="" style="endArrow=none;html=1;strokeColor=#FF0000;strokeWidth=1;fontColor=#FFFFFF;" parent="-v-0ilIZoySxreV-l9_N-27" edge="1">
                    <mxGeometry width="50" height="50" relative="1" as="geometry">
                        <mxPoint y="150" as="sourcePoint"/>
                        <mxPoint x="250" y="105" as="targetPoint"/>
                    </mxGeometry>
                </mxCell>
                <mxCell id="-v-0ilIZoySxreV-l9_N-22" value="" style="endArrow=none;html=1;strokeColor=#FF0000;strokeWidth=1;fontColor=#FFFFFF;" parent="-v-0ilIZoySxreV-l9_N-27" edge="1">
                    <mxGeometry width="50" height="50" relative="1" as="geometry">
                        <mxPoint y="150" as="sourcePoint"/>
                        <mxPoint x="185.5" y="-81" as="targetPoint"/>
                    </mxGeometry>
                </mxCell>
                <mxCell id="-v-0ilIZoySxreV-l9_N-7" value="" style="endArrow=classic;html=1;strokeWidth=1;strokeColor=#FF0000;" parent="-v-0ilIZoySxreV-l9_N-27" edge="1">
                    <mxGeometry width="50" height="50" relative="1" as="geometry">
                        <mxPoint y="150" as="sourcePoint"/>
                        <mxPoint x="61.09000000000003" y="75.58000000000004" as="targetPoint"/>
                    </mxGeometry>
                </mxCell>
                <mxCell id="-v-0ilIZoySxreV-l9_N-8" value="" style="endArrow=classic;html=1;strokeWidth=1;strokeColor=#FF0000;" parent="-v-0ilIZoySxreV-l9_N-27" edge="1">
                    <mxGeometry width="50" height="50" relative="1" as="geometry">
                        <mxPoint y="150" as="sourcePoint"/>
                        <mxPoint x="118" y="129" as="targetPoint"/>
                    </mxGeometry>
                </mxCell>
                <mxCell id="-v-0ilIZoySxreV-l9_N-9" value="v1" style="text;html=1;align=center;verticalAlign=middle;resizable=0;points=[];autosize=1;fontColor=#FF0000;rotation=-11;fontSize=20;" parent="-v-0ilIZoySxreV-l9_N-27" vertex="1">
                    <mxGeometry x="107" y="116" width="40" height="40" as="geometry"/>
                </mxCell>
                <mxCell id="-v-0ilIZoySxreV-l9_N-229" value="x1" style="text;html=1;align=center;verticalAlign=middle;resizable=0;points=[];autosize=1;strokeColor=none;fillColor=none;fontSize=20;fontColor=#FFFFFF;" parent="-v-0ilIZoySxreV-l9_N-27" vertex="1">
                    <mxGeometry x="131.5" y="142" width="40" height="40" as="geometry"/>
                </mxCell>
                <mxCell id="-v-0ilIZoySxreV-l9_N-231" value="z1" style="text;html=1;align=center;verticalAlign=middle;resizable=0;points=[];autosize=1;strokeColor=none;fillColor=none;fontSize=20;fontColor=#FFFFFF;" parent="-v-0ilIZoySxreV-l9_N-27" vertex="1">
                    <mxGeometry x="171.5" y="83" width="40" height="40" as="geometry"/>
                </mxCell>
                <mxCell id="-v-0ilIZoySxreV-l9_N-232" value="&lt;span style=&quot;color: rgb(255, 255, 255); font-family: Helvetica; font-size: 20px; font-style: normal; font-variant-ligatures: normal; font-variant-caps: normal; font-weight: 400; letter-spacing: normal; orphans: 2; text-align: center; text-indent: 0px; text-transform: none; widows: 2; word-spacing: 0px; -webkit-text-stroke-width: 0px; background-color: rgb(42, 37, 47); text-decoration-thickness: initial; text-decoration-style: initial; text-decoration-color: initial; float: none; display: inline !important;&quot;&gt;z2&lt;/span&gt;" style="text;whiteSpace=wrap;html=1;fontSize=20;fontColor=#FFFFFF;" parent="-v-0ilIZoySxreV-l9_N-26" vertex="1">
                    <mxGeometry x="133" y="10" width="50" height="50" as="geometry"/>
                </mxCell>
                <mxCell id="-v-0ilIZoySxreV-l9_N-230" value="x2" style="text;html=1;align=center;verticalAlign=middle;resizable=0;points=[];autosize=1;strokeColor=none;fillColor=none;fontSize=20;fontColor=#FFFFFF;" parent="-v-0ilIZoySxreV-l9_N-26" vertex="1">
                    <mxGeometry x="-8" y="40" width="40" height="40" as="geometry"/>
                </mxCell>
                <mxCell id="-v-0ilIZoySxreV-l9_N-34" value="" style="endArrow=classic;html=1;strokeColor=#00FF00;strokeWidth=1;fontColor=#FFFFFF;entryX=0;entryY=0.5;entryDx=0;entryDy=0;" parent="-v-0ilIZoySxreV-l9_N-226" edge="1">
                    <mxGeometry width="50" height="50" relative="1" as="geometry">
                        <mxPoint x="37" y="189" as="sourcePoint"/>
                        <mxPoint x="180" y="57" as="targetPoint"/>
                    </mxGeometry>
                </mxCell>
                <mxCell id="-v-0ilIZoySxreV-l9_N-36" value="" style="endArrow=classic;html=1;strokeColor=#FFFFFF;strokeWidth=1;fontColor=#FFFFFF;dashed=1;exitX=0.5;exitY=1;exitDx=0;exitDy=0;" parent="-v-0ilIZoySxreV-l9_N-226" source="-v-0ilIZoySxreV-l9_N-19" edge="1">
                    <mxGeometry width="50" height="50" relative="1" as="geometry">
                        <mxPoint x="183" y="61" as="sourcePoint"/>
                        <mxPoint x="183" y="190" as="targetPoint"/>
                    </mxGeometry>
                </mxCell>
                <mxCell id="-v-0ilIZoySxreV-l9_N-37" value="" style="endArrow=classic;html=1;strokeColor=#FFFFFF;strokeWidth=1;fontColor=#FFFFFF;dashed=1;" parent="-v-0ilIZoySxreV-l9_N-226" edge="1">
                    <mxGeometry width="50" height="50" relative="1" as="geometry">
                        <mxPoint x="180" y="56" as="sourcePoint"/>
                        <mxPoint x="35" y="56" as="targetPoint"/>
                    </mxGeometry>
                </mxCell>
                <mxCell id="-v-0ilIZoySxreV-l9_N-38" value="" style="endArrow=classic;html=1;strokeColor=#FF0000;strokeWidth=1;fontColor=#FFFFFF;dashed=1;exitX=1;exitY=1;exitDx=0;exitDy=0;" parent="-v-0ilIZoySxreV-l9_N-226" source="-v-0ilIZoySxreV-l9_N-19" edge="1">
                    <mxGeometry width="50" height="50" relative="1" as="geometry">
                        <mxPoint x="193" y="71" as="sourcePoint"/>
                        <mxPoint x="210" y="160" as="targetPoint"/>
                    </mxGeometry>
                </mxCell>
                <mxCell id="-v-0ilIZoySxreV-l9_N-39" value="" style="endArrow=classic;html=1;strokeColor=#FF0000;strokeWidth=1;fontColor=#FFFFFF;dashed=1;" parent="-v-0ilIZoySxreV-l9_N-226" source="-v-0ilIZoySxreV-l9_N-19" edge="1">
                    <mxGeometry width="50" height="50" relative="1" as="geometry">
                        <mxPoint x="196.53553390593265" y="72.53553390593265" as="sourcePoint"/>
                        <mxPoint x="160" y="33" as="targetPoint"/>
                    </mxGeometry>
                </mxCell>
                <mxCell id="-v-0ilIZoySxreV-l9_N-233" value="" style="endArrow=classic;html=1;strokeColor=#FFFFFF;strokeWidth=1;fontSize=20;fontColor=#FFFFFF;" parent="1" source="-v-0ilIZoySxreV-l9_N-234" edge="1">
                    <mxGeometry width="50" height="50" relative="1" as="geometry">
                        <mxPoint x="840" y="610" as="sourcePoint"/>
                        <mxPoint x="760" y="730" as="targetPoint"/>
                    </mxGeometry>
                </mxCell>
                <mxCell id="-v-0ilIZoySxreV-l9_N-234" value="&lt;span style=&quot;font-size: 22px;&quot;&gt;坐标系&lt;/span&gt;&lt;br style=&quot;font-size: 22px;&quot;&gt;[z1, z2] ^T是基于这个坐标系的" style="text;html=1;align=center;verticalAlign=middle;resizable=0;points=[];autosize=1;strokeColor=none;fillColor=none;fontSize=20;fontColor=#FFFFFF;" parent="1" vertex="1">
                    <mxGeometry x="720" y="590" width="300" height="60" as="geometry"/>
                </mxCell>
                <mxCell id="-v-0ilIZoySxreV-l9_N-236" value="" style="endArrow=classic;html=1;strokeColor=#FFFFFF;strokeWidth=1;fontSize=20;fontColor=#FFFFFF;" parent="1" source="-v-0ilIZoySxreV-l9_N-234" edge="1">
                    <mxGeometry width="50" height="50" relative="1" as="geometry">
                        <mxPoint x="950" y="640" as="sourcePoint"/>
                        <mxPoint x="1010" y="760" as="targetPoint"/>
                    </mxGeometry>
                </mxCell>
                <mxCell id="-v-0ilIZoySxreV-l9_N-237" value="&lt;font style=&quot;font-size: 40px;&quot;&gt;同一个点，在不同坐标系下的表示&lt;/font&gt;" style="text;html=1;align=center;verticalAlign=middle;resizable=0;points=[];autosize=1;strokeColor=none;fillColor=none;fontSize=20;fontColor=#FFFFFF;" parent="1" vertex="1">
                    <mxGeometry x="-100" y="570" width="620" height="60" as="geometry"/>
                </mxCell>
                <mxCell id="-v-0ilIZoySxreV-l9_N-238" value="" style="endArrow=classic;html=1;strokeColor=#FFFFFF;strokeWidth=1;fontSize=20;fontColor=#FFFFFF;" parent="1" source="-v-0ilIZoySxreV-l9_N-237" edge="1">
                    <mxGeometry width="50" height="50" relative="1" as="geometry">
                        <mxPoint x="490" y="780" as="sourcePoint"/>
                        <mxPoint x="700" y="790" as="targetPoint"/>
                    </mxGeometry>
                </mxCell>
                <mxCell id="-v-0ilIZoySxreV-l9_N-239" value="" style="endArrow=classic;html=1;strokeColor=#FFFFFF;strokeWidth=1;fontSize=20;fontColor=#FFFFFF;exitX=0.586;exitY=0.05;exitDx=0;exitDy=0;exitPerimeter=0;" parent="1" source="-v-0ilIZoySxreV-l9_N-237" edge="1">
                    <mxGeometry width="50" height="50" relative="1" as="geometry">
                        <mxPoint x="430" y="590" as="sourcePoint"/>
                        <mxPoint x="590" y="420" as="targetPoint"/>
                    </mxGeometry>
                </mxCell>
                <mxCell id="-v-0ilIZoySxreV-l9_N-240" value="=" style="text;html=1;align=center;verticalAlign=middle;resizable=0;points=[];autosize=1;strokeColor=none;fillColor=none;fontSize=122;fontColor=#FFFFFF;rotation=50;" parent="1" vertex="1">
                    <mxGeometry x="620" y="520" width="90" height="160" as="geometry"/>
                </mxCell>
                <mxCell id="-v-0ilIZoySxreV-l9_N-253" value="" style="group" parent="1" vertex="1" connectable="0">
                    <mxGeometry x="200" y="1020" width="60" height="120" as="geometry"/>
                </mxCell>
                <mxCell id="-v-0ilIZoySxreV-l9_N-254" value="" style="group" parent="-v-0ilIZoySxreV-l9_N-253" vertex="1" connectable="0">
                    <mxGeometry width="20" height="120" as="geometry"/>
                </mxCell>
                <mxCell id="-v-0ilIZoySxreV-l9_N-255" value="" style="endArrow=none;html=1;strokeColor=#FFFFFF;strokeWidth=1;fontSize=22;fontColor=#FFFFFF;" parent="-v-0ilIZoySxreV-l9_N-254" edge="1">
                    <mxGeometry width="50" height="50" relative="1" as="geometry">
                        <mxPoint y="120" as="sourcePoint"/>
                        <mxPoint as="targetPoint"/>
                    </mxGeometry>
                </mxCell>
                <mxCell id="-v-0ilIZoySxreV-l9_N-256" value="" style="endArrow=none;html=1;strokeColor=#FFFFFF;strokeWidth=1;fontSize=22;fontColor=#FFFFFF;" parent="-v-0ilIZoySxreV-l9_N-254" edge="1">
                    <mxGeometry width="50" height="50" relative="1" as="geometry">
                        <mxPoint y="120" as="sourcePoint"/>
                        <mxPoint x="20" y="120" as="targetPoint"/>
                    </mxGeometry>
                </mxCell>
                <mxCell id="-v-0ilIZoySxreV-l9_N-257" value="" style="endArrow=none;html=1;strokeColor=#FFFFFF;strokeWidth=1;fontSize=22;fontColor=#FFFFFF;" parent="-v-0ilIZoySxreV-l9_N-254" edge="1">
                    <mxGeometry width="50" height="50" relative="1" as="geometry">
                        <mxPoint as="sourcePoint"/>
                        <mxPoint x="20" as="targetPoint"/>
                    </mxGeometry>
                </mxCell>
                <mxCell id="-v-0ilIZoySxreV-l9_N-258" value="" style="group;rotation=-180;" parent="-v-0ilIZoySxreV-l9_N-253" vertex="1" connectable="0">
                    <mxGeometry x="40" width="20" height="120" as="geometry"/>
                </mxCell>
                <mxCell id="-v-0ilIZoySxreV-l9_N-259" value="" style="endArrow=none;html=1;strokeColor=#FFFFFF;strokeWidth=1;fontSize=22;fontColor=#FFFFFF;" parent="-v-0ilIZoySxreV-l9_N-258" edge="1">
                    <mxGeometry width="50" height="50" relative="1" as="geometry">
                        <mxPoint x="20" as="sourcePoint"/>
                        <mxPoint x="20" y="120" as="targetPoint"/>
                    </mxGeometry>
                </mxCell>
                <mxCell id="-v-0ilIZoySxreV-l9_N-260" value="" style="endArrow=none;html=1;strokeColor=#FFFFFF;strokeWidth=1;fontSize=22;fontColor=#FFFFFF;" parent="-v-0ilIZoySxreV-l9_N-258" edge="1">
                    <mxGeometry width="50" height="50" relative="1" as="geometry">
                        <mxPoint x="20" as="sourcePoint"/>
                        <mxPoint as="targetPoint"/>
                    </mxGeometry>
                </mxCell>
                <mxCell id="-v-0ilIZoySxreV-l9_N-261" value="" style="endArrow=none;html=1;strokeColor=#FFFFFF;strokeWidth=1;fontSize=22;fontColor=#FFFFFF;" parent="-v-0ilIZoySxreV-l9_N-258" edge="1">
                    <mxGeometry width="50" height="50" relative="1" as="geometry">
                        <mxPoint x="20" y="120" as="sourcePoint"/>
                        <mxPoint y="120" as="targetPoint"/>
                    </mxGeometry>
                </mxCell>
                <mxCell id="-v-0ilIZoySxreV-l9_N-262" value="x1" style="text;html=1;align=center;verticalAlign=middle;resizable=0;points=[];autosize=1;strokeColor=none;fillColor=none;fontSize=22;fontColor=#FFFFFF;" parent="-v-0ilIZoySxreV-l9_N-253" vertex="1">
                    <mxGeometry x="4" y="11" width="50" height="40" as="geometry"/>
                </mxCell>
                <mxCell id="-v-0ilIZoySxreV-l9_N-263" value="x2" style="text;html=1;align=center;verticalAlign=middle;resizable=0;points=[];autosize=1;strokeColor=none;fillColor=none;fontSize=22;fontColor=#FFFFFF;" parent="-v-0ilIZoySxreV-l9_N-253" vertex="1">
                    <mxGeometry x="4" y="60" width="50" height="40" as="geometry"/>
                </mxCell>
                <mxCell id="-v-0ilIZoySxreV-l9_N-264" value="E" style="text;html=1;align=center;verticalAlign=middle;resizable=0;points=[];autosize=1;strokeColor=none;fillColor=none;fontSize=49;fontColor=#FFFFFF;" parent="1" vertex="1">
                    <mxGeometry x="130" y="1046" width="60" height="70" as="geometry"/>
                </mxCell>
                <mxCell id="-v-0ilIZoySxreV-l9_N-266" value="" style="endArrow=classic;html=1;strokeColor=#FFFFFF;strokeWidth=1;fontSize=122;fontColor=#FFFFFF;exitX=0.54;exitY=0.994;exitDx=0;exitDy=0;exitPerimeter=0;" parent="1" source="-v-0ilIZoySxreV-l9_N-147" edge="1">
                    <mxGeometry width="50" height="50" relative="1" as="geometry">
                        <mxPoint x="1250" y="490" as="sourcePoint"/>
                        <mxPoint x="1240" y="750" as="targetPoint"/>
                    </mxGeometry>
                </mxCell>
                <mxCell id="-v-0ilIZoySxreV-l9_N-270" value="&lt;span style=&quot;font-family: Helvetica; font-size: 34px; font-style: normal; font-variant-ligatures: normal; font-variant-caps: normal; font-weight: 400; letter-spacing: normal; orphans: 2; text-align: center; text-indent: 0px; text-transform: none; widows: 2; word-spacing: 0px; -webkit-text-stroke-width: 0px; text-decoration-thickness: initial; text-decoration-style: initial; text-decoration-color: initial; float: none; display: inline !important;&quot;&gt;v1，v2是基于e1,e2来表示的&lt;/span&gt;" style="text;whiteSpace=wrap;html=1;fontSize=34;fontColor=default;labelBackgroundColor=none;" parent="1" vertex="1">
                    <mxGeometry x="861" y="880" width="460" height="60" as="geometry"/>
                </mxCell>
                <mxCell id="-v-0ilIZoySxreV-l9_N-271" value="" style="group" parent="1" vertex="1" connectable="0">
                    <mxGeometry x="580" y="1020" width="60" height="120" as="geometry"/>
                </mxCell>
                <mxCell id="-v-0ilIZoySxreV-l9_N-272" value="" style="group" parent="-v-0ilIZoySxreV-l9_N-271" vertex="1" connectable="0">
                    <mxGeometry width="20" height="120" as="geometry"/>
                </mxCell>
                <mxCell id="-v-0ilIZoySxreV-l9_N-273" value="" style="endArrow=none;html=1;strokeColor=#FFFFFF;strokeWidth=1;fontSize=22;fontColor=#FFFFFF;" parent="-v-0ilIZoySxreV-l9_N-272" edge="1">
                    <mxGeometry width="50" height="50" relative="1" as="geometry">
                        <mxPoint y="120" as="sourcePoint"/>
                        <mxPoint as="targetPoint"/>
                    </mxGeometry>
                </mxCell>
                <mxCell id="-v-0ilIZoySxreV-l9_N-274" value="" style="endArrow=none;html=1;strokeColor=#FFFFFF;strokeWidth=1;fontSize=22;fontColor=#FFFFFF;" parent="-v-0ilIZoySxreV-l9_N-272" edge="1">
                    <mxGeometry width="50" height="50" relative="1" as="geometry">
                        <mxPoint y="120" as="sourcePoint"/>
                        <mxPoint x="20" y="120" as="targetPoint"/>
                    </mxGeometry>
                </mxCell>
                <mxCell id="-v-0ilIZoySxreV-l9_N-275" value="" style="endArrow=none;html=1;strokeColor=#FFFFFF;strokeWidth=1;fontSize=22;fontColor=#FFFFFF;" parent="-v-0ilIZoySxreV-l9_N-272" edge="1">
                    <mxGeometry width="50" height="50" relative="1" as="geometry">
                        <mxPoint as="sourcePoint"/>
                        <mxPoint x="20" as="targetPoint"/>
                    </mxGeometry>
                </mxCell>
                <mxCell id="-v-0ilIZoySxreV-l9_N-276" value="" style="group;rotation=-180;" parent="-v-0ilIZoySxreV-l9_N-271" vertex="1" connectable="0">
                    <mxGeometry x="40" width="20" height="120" as="geometry"/>
                </mxCell>
                <mxCell id="-v-0ilIZoySxreV-l9_N-277" value="" style="endArrow=none;html=1;strokeColor=#FFFFFF;strokeWidth=1;fontSize=22;fontColor=#FFFFFF;" parent="-v-0ilIZoySxreV-l9_N-276" edge="1">
                    <mxGeometry width="50" height="50" relative="1" as="geometry">
                        <mxPoint x="20" as="sourcePoint"/>
                        <mxPoint x="20" y="120" as="targetPoint"/>
                    </mxGeometry>
                </mxCell>
                <mxCell id="-v-0ilIZoySxreV-l9_N-278" value="" style="endArrow=none;html=1;strokeColor=#FFFFFF;strokeWidth=1;fontSize=22;fontColor=#FFFFFF;" parent="-v-0ilIZoySxreV-l9_N-276" edge="1">
                    <mxGeometry width="50" height="50" relative="1" as="geometry">
                        <mxPoint x="20" as="sourcePoint"/>
                        <mxPoint as="targetPoint"/>
                    </mxGeometry>
                </mxCell>
                <mxCell id="-v-0ilIZoySxreV-l9_N-279" value="" style="endArrow=none;html=1;strokeColor=#FFFFFF;strokeWidth=1;fontSize=22;fontColor=#FFFFFF;" parent="-v-0ilIZoySxreV-l9_N-276" edge="1">
                    <mxGeometry width="50" height="50" relative="1" as="geometry">
                        <mxPoint x="20" y="120" as="sourcePoint"/>
                        <mxPoint y="120" as="targetPoint"/>
                    </mxGeometry>
                </mxCell>
                <mxCell id="-v-0ilIZoySxreV-l9_N-280" value="z1" style="text;html=1;align=center;verticalAlign=middle;resizable=0;points=[];autosize=1;strokeColor=none;fillColor=none;fontSize=22;fontColor=#FFFFFF;" parent="-v-0ilIZoySxreV-l9_N-271" vertex="1">
                    <mxGeometry x="4" y="11" width="50" height="40" as="geometry"/>
                </mxCell>
                <mxCell id="-v-0ilIZoySxreV-l9_N-281" value="z2" style="text;html=1;align=center;verticalAlign=middle;resizable=0;points=[];autosize=1;strokeColor=none;fillColor=none;fontSize=22;fontColor=#FFFFFF;" parent="-v-0ilIZoySxreV-l9_N-271" vertex="1">
                    <mxGeometry x="4" y="60" width="50" height="40" as="geometry"/>
                </mxCell>
                <mxCell id="-v-0ilIZoySxreV-l9_N-282" value="V" style="text;html=1;align=center;verticalAlign=middle;resizable=0;points=[];autosize=1;strokeColor=none;fillColor=none;fontSize=49;fontColor=#FFFFFF;" parent="1" vertex="1">
                    <mxGeometry x="510" y="1046" width="60" height="70" as="geometry"/>
                </mxCell>
                <mxCell id="-v-0ilIZoySxreV-l9_N-283" value="" style="group" parent="1" vertex="1" connectable="0">
                    <mxGeometry x="370" y="1020" width="60" height="120" as="geometry"/>
                </mxCell>
                <mxCell id="-v-0ilIZoySxreV-l9_N-284" value="" style="group" parent="-v-0ilIZoySxreV-l9_N-283" vertex="1" connectable="0">
                    <mxGeometry width="20" height="120" as="geometry"/>
                </mxCell>
                <mxCell id="-v-0ilIZoySxreV-l9_N-285" value="" style="endArrow=none;html=1;strokeColor=#FFFFFF;strokeWidth=1;fontSize=22;fontColor=#FFFFFF;" parent="-v-0ilIZoySxreV-l9_N-284" edge="1">
                    <mxGeometry width="50" height="50" relative="1" as="geometry">
                        <mxPoint y="120" as="sourcePoint"/>
                        <mxPoint as="targetPoint"/>
                    </mxGeometry>
                </mxCell>
                <mxCell id="-v-0ilIZoySxreV-l9_N-286" value="" style="endArrow=none;html=1;strokeColor=#FFFFFF;strokeWidth=1;fontSize=22;fontColor=#FFFFFF;" parent="-v-0ilIZoySxreV-l9_N-284" edge="1">
                    <mxGeometry width="50" height="50" relative="1" as="geometry">
                        <mxPoint y="120" as="sourcePoint"/>
                        <mxPoint x="20" y="120" as="targetPoint"/>
                    </mxGeometry>
                </mxCell>
                <mxCell id="-v-0ilIZoySxreV-l9_N-287" value="" style="endArrow=none;html=1;strokeColor=#FFFFFF;strokeWidth=1;fontSize=22;fontColor=#FFFFFF;" parent="-v-0ilIZoySxreV-l9_N-284" edge="1">
                    <mxGeometry width="50" height="50" relative="1" as="geometry">
                        <mxPoint as="sourcePoint"/>
                        <mxPoint x="20" as="targetPoint"/>
                    </mxGeometry>
                </mxCell>
                <mxCell id="-v-0ilIZoySxreV-l9_N-288" value="" style="group;rotation=-180;" parent="-v-0ilIZoySxreV-l9_N-283" vertex="1" connectable="0">
                    <mxGeometry x="40" width="20" height="120" as="geometry"/>
                </mxCell>
                <mxCell id="-v-0ilIZoySxreV-l9_N-289" value="" style="endArrow=none;html=1;strokeColor=#FFFFFF;strokeWidth=1;fontSize=22;fontColor=#FFFFFF;" parent="-v-0ilIZoySxreV-l9_N-288" edge="1">
                    <mxGeometry width="50" height="50" relative="1" as="geometry">
                        <mxPoint x="20" as="sourcePoint"/>
                        <mxPoint x="20" y="120" as="targetPoint"/>
                    </mxGeometry>
                </mxCell>
                <mxCell id="-v-0ilIZoySxreV-l9_N-290" value="" style="endArrow=none;html=1;strokeColor=#FFFFFF;strokeWidth=1;fontSize=22;fontColor=#FFFFFF;" parent="-v-0ilIZoySxreV-l9_N-288" edge="1">
                    <mxGeometry width="50" height="50" relative="1" as="geometry">
                        <mxPoint x="20" as="sourcePoint"/>
                        <mxPoint as="targetPoint"/>
                    </mxGeometry>
                </mxCell>
                <mxCell id="-v-0ilIZoySxreV-l9_N-291" value="" style="endArrow=none;html=1;strokeColor=#FFFFFF;strokeWidth=1;fontSize=22;fontColor=#FFFFFF;" parent="-v-0ilIZoySxreV-l9_N-288" edge="1">
                    <mxGeometry width="50" height="50" relative="1" as="geometry">
                        <mxPoint x="20" y="120" as="sourcePoint"/>
                        <mxPoint y="120" as="targetPoint"/>
                    </mxGeometry>
                </mxCell>
                <mxCell id="-v-0ilIZoySxreV-l9_N-292" value="x1" style="text;html=1;align=center;verticalAlign=middle;resizable=0;points=[];autosize=1;strokeColor=none;fillColor=none;fontSize=22;fontColor=#FFFFFF;" parent="-v-0ilIZoySxreV-l9_N-283" vertex="1">
                    <mxGeometry x="4" y="11" width="50" height="40" as="geometry"/>
                </mxCell>
                <mxCell id="-v-0ilIZoySxreV-l9_N-293" value="x2" style="text;html=1;align=center;verticalAlign=middle;resizable=0;points=[];autosize=1;strokeColor=none;fillColor=none;fontSize=22;fontColor=#FFFFFF;" parent="-v-0ilIZoySxreV-l9_N-283" vertex="1">
                    <mxGeometry x="4" y="60" width="50" height="40" as="geometry"/>
                </mxCell>
                <mxCell id="-v-0ilIZoySxreV-l9_N-294" value="=" style="text;html=1;align=center;verticalAlign=middle;resizable=0;points=[];autosize=1;strokeColor=none;fillColor=none;fontSize=22;fontColor=#FFFFFF;" parent="1" vertex="1">
                    <mxGeometry x="300" y="1060" width="40" height="40" as="geometry"/>
                </mxCell>
                <mxCell id="-v-0ilIZoySxreV-l9_N-295" value="=" style="text;html=1;align=center;verticalAlign=middle;resizable=0;points=[];autosize=1;strokeColor=none;fillColor=none;fontSize=22;fontColor=#FFFFFF;" parent="1" vertex="1">
                    <mxGeometry x="460" y="1061" width="40" height="40" as="geometry"/>
                </mxCell>
                <mxCell id="-v-0ilIZoySxreV-l9_N-297" value="" style="shape=flexArrow;endArrow=classic;html=1;strokeColor=#FFFFFF;strokeWidth=1;fontSize=34;fontColor=#FFFFFF;" parent="1" edge="1">
                    <mxGeometry width="50" height="50" relative="1" as="geometry">
                        <mxPoint x="712" y="1080.41" as="sourcePoint"/>
                        <mxPoint x="842" y="1080.41" as="targetPoint"/>
                    </mxGeometry>
                </mxCell>
                <mxCell id="-v-0ilIZoySxreV-l9_N-298" value="" style="group" parent="1" vertex="1" connectable="0">
                    <mxGeometry x="920" y="1020" width="60" height="120" as="geometry"/>
                </mxCell>
                <mxCell id="-v-0ilIZoySxreV-l9_N-299" value="" style="group" parent="-v-0ilIZoySxreV-l9_N-298" vertex="1" connectable="0">
                    <mxGeometry width="20" height="120" as="geometry"/>
                </mxCell>
                <mxCell id="-v-0ilIZoySxreV-l9_N-300" value="" style="endArrow=none;html=1;strokeColor=#FFFFFF;strokeWidth=1;fontSize=22;fontColor=#FFFFFF;" parent="-v-0ilIZoySxreV-l9_N-299" edge="1">
                    <mxGeometry width="50" height="50" relative="1" as="geometry">
                        <mxPoint y="120" as="sourcePoint"/>
                        <mxPoint as="targetPoint"/>
                    </mxGeometry>
                </mxCell>
                <mxCell id="-v-0ilIZoySxreV-l9_N-301" value="" style="endArrow=none;html=1;strokeColor=#FFFFFF;strokeWidth=1;fontSize=22;fontColor=#FFFFFF;" parent="-v-0ilIZoySxreV-l9_N-299" edge="1">
                    <mxGeometry width="50" height="50" relative="1" as="geometry">
                        <mxPoint y="120" as="sourcePoint"/>
                        <mxPoint x="20" y="120" as="targetPoint"/>
                    </mxGeometry>
                </mxCell>
                <mxCell id="-v-0ilIZoySxreV-l9_N-302" value="" style="endArrow=none;html=1;strokeColor=#FFFFFF;strokeWidth=1;fontSize=22;fontColor=#FFFFFF;" parent="-v-0ilIZoySxreV-l9_N-299" edge="1">
                    <mxGeometry width="50" height="50" relative="1" as="geometry">
                        <mxPoint as="sourcePoint"/>
                        <mxPoint x="20" as="targetPoint"/>
                    </mxGeometry>
                </mxCell>
                <mxCell id="-v-0ilIZoySxreV-l9_N-303" value="" style="group;rotation=-180;" parent="-v-0ilIZoySxreV-l9_N-298" vertex="1" connectable="0">
                    <mxGeometry x="40" width="20" height="120" as="geometry"/>
                </mxCell>
                <mxCell id="-v-0ilIZoySxreV-l9_N-304" value="" style="endArrow=none;html=1;strokeColor=#FFFFFF;strokeWidth=1;fontSize=22;fontColor=#FFFFFF;" parent="-v-0ilIZoySxreV-l9_N-303" edge="1">
                    <mxGeometry width="50" height="50" relative="1" as="geometry">
                        <mxPoint x="20" as="sourcePoint"/>
                        <mxPoint x="20" y="120" as="targetPoint"/>
                    </mxGeometry>
                </mxCell>
                <mxCell id="-v-0ilIZoySxreV-l9_N-305" value="" style="endArrow=none;html=1;strokeColor=#FFFFFF;strokeWidth=1;fontSize=22;fontColor=#FFFFFF;" parent="-v-0ilIZoySxreV-l9_N-303" edge="1">
                    <mxGeometry width="50" height="50" relative="1" as="geometry">
                        <mxPoint x="20" as="sourcePoint"/>
                        <mxPoint as="targetPoint"/>
                    </mxGeometry>
                </mxCell>
                <mxCell id="-v-0ilIZoySxreV-l9_N-306" value="" style="endArrow=none;html=1;strokeColor=#FFFFFF;strokeWidth=1;fontSize=22;fontColor=#FFFFFF;" parent="-v-0ilIZoySxreV-l9_N-303" edge="1">
                    <mxGeometry width="50" height="50" relative="1" as="geometry">
                        <mxPoint x="20" y="120" as="sourcePoint"/>
                        <mxPoint y="120" as="targetPoint"/>
                    </mxGeometry>
                </mxCell>
                <mxCell id="-v-0ilIZoySxreV-l9_N-307" value="z1" style="text;html=1;align=center;verticalAlign=middle;resizable=0;points=[];autosize=1;strokeColor=none;fillColor=none;fontSize=22;fontColor=#FFFFFF;" parent="-v-0ilIZoySxreV-l9_N-298" vertex="1">
                    <mxGeometry x="4" y="11" width="50" height="40" as="geometry"/>
                </mxCell>
                <mxCell id="-v-0ilIZoySxreV-l9_N-308" value="z2" style="text;html=1;align=center;verticalAlign=middle;resizable=0;points=[];autosize=1;strokeColor=none;fillColor=none;fontSize=22;fontColor=#FFFFFF;" parent="-v-0ilIZoySxreV-l9_N-298" vertex="1">
                    <mxGeometry x="4" y="60" width="50" height="40" as="geometry"/>
                </mxCell>
                <mxCell id="-v-0ilIZoySxreV-l9_N-309" value="=" style="text;html=1;align=center;verticalAlign=middle;resizable=0;points=[];autosize=1;strokeColor=none;fillColor=none;fontSize=22;fontColor=#FFFFFF;" parent="1" vertex="1">
                    <mxGeometry x="1020" y="1061" width="40" height="40" as="geometry"/>
                </mxCell>
                <mxCell id="-v-0ilIZoySxreV-l9_N-310" value="" style="group" parent="1" vertex="1" connectable="0">
                    <mxGeometry x="1130" y="1020" width="60" height="120" as="geometry"/>
                </mxCell>
                <mxCell id="-v-0ilIZoySxreV-l9_N-311" value="" style="group" parent="-v-0ilIZoySxreV-l9_N-310" vertex="1" connectable="0">
                    <mxGeometry width="20" height="120" as="geometry"/>
                </mxCell>
                <mxCell id="-v-0ilIZoySxreV-l9_N-312" value="" style="endArrow=none;html=1;strokeColor=#FFFFFF;strokeWidth=1;fontSize=22;fontColor=#FFFFFF;" parent="-v-0ilIZoySxreV-l9_N-311" edge="1">
                    <mxGeometry width="50" height="50" relative="1" as="geometry">
                        <mxPoint y="120" as="sourcePoint"/>
                        <mxPoint as="targetPoint"/>
                    </mxGeometry>
                </mxCell>
                <mxCell id="-v-0ilIZoySxreV-l9_N-313" value="" style="endArrow=none;html=1;strokeColor=#FFFFFF;strokeWidth=1;fontSize=22;fontColor=#FFFFFF;" parent="-v-0ilIZoySxreV-l9_N-311" edge="1">
                    <mxGeometry width="50" height="50" relative="1" as="geometry">
                        <mxPoint y="120" as="sourcePoint"/>
                        <mxPoint x="20" y="120" as="targetPoint"/>
                    </mxGeometry>
                </mxCell>
                <mxCell id="-v-0ilIZoySxreV-l9_N-314" value="" style="endArrow=none;html=1;strokeColor=#FFFFFF;strokeWidth=1;fontSize=22;fontColor=#FFFFFF;" parent="-v-0ilIZoySxreV-l9_N-311" edge="1">
                    <mxGeometry width="50" height="50" relative="1" as="geometry">
                        <mxPoint as="sourcePoint"/>
                        <mxPoint x="20" as="targetPoint"/>
                    </mxGeometry>
                </mxCell>
                <mxCell id="-v-0ilIZoySxreV-l9_N-315" value="" style="group;rotation=-180;" parent="-v-0ilIZoySxreV-l9_N-310" vertex="1" connectable="0">
                    <mxGeometry x="40" width="20" height="120" as="geometry"/>
                </mxCell>
                <mxCell id="-v-0ilIZoySxreV-l9_N-316" value="" style="endArrow=none;html=1;strokeColor=#FFFFFF;strokeWidth=1;fontSize=22;fontColor=#FFFFFF;" parent="-v-0ilIZoySxreV-l9_N-315" edge="1">
                    <mxGeometry width="50" height="50" relative="1" as="geometry">
                        <mxPoint x="20" as="sourcePoint"/>
                        <mxPoint x="20" y="120" as="targetPoint"/>
                    </mxGeometry>
                </mxCell>
                <mxCell id="-v-0ilIZoySxreV-l9_N-317" value="" style="endArrow=none;html=1;strokeColor=#FFFFFF;strokeWidth=1;fontSize=22;fontColor=#FFFFFF;" parent="-v-0ilIZoySxreV-l9_N-315" edge="1">
                    <mxGeometry width="50" height="50" relative="1" as="geometry">
                        <mxPoint x="20" as="sourcePoint"/>
                        <mxPoint as="targetPoint"/>
                    </mxGeometry>
                </mxCell>
                <mxCell id="-v-0ilIZoySxreV-l9_N-318" value="" style="endArrow=none;html=1;strokeColor=#FFFFFF;strokeWidth=1;fontSize=22;fontColor=#FFFFFF;" parent="-v-0ilIZoySxreV-l9_N-315" edge="1">
                    <mxGeometry width="50" height="50" relative="1" as="geometry">
                        <mxPoint x="20" y="120" as="sourcePoint"/>
                        <mxPoint y="120" as="targetPoint"/>
                    </mxGeometry>
                </mxCell>
                <mxCell id="-v-0ilIZoySxreV-l9_N-319" value="x1" style="text;html=1;align=center;verticalAlign=middle;resizable=0;points=[];autosize=1;strokeColor=none;fillColor=none;fontSize=22;fontColor=#FFFFFF;" parent="-v-0ilIZoySxreV-l9_N-310" vertex="1">
                    <mxGeometry x="4" y="11" width="50" height="40" as="geometry"/>
                </mxCell>
                <mxCell id="-v-0ilIZoySxreV-l9_N-320" value="x2" style="text;html=1;align=center;verticalAlign=middle;resizable=0;points=[];autosize=1;strokeColor=none;fillColor=none;fontSize=22;fontColor=#FFFFFF;" parent="-v-0ilIZoySxreV-l9_N-310" vertex="1">
                    <mxGeometry x="4" y="60" width="50" height="40" as="geometry"/>
                </mxCell>
                <mxCell id="-v-0ilIZoySxreV-l9_N-323" value="" style="group" parent="1" vertex="1" connectable="0">
                    <mxGeometry x="1050" y="1030" width="82" height="86" as="geometry"/>
                </mxCell>
                <mxCell id="-v-0ilIZoySxreV-l9_N-321" value="V" style="text;html=1;align=center;verticalAlign=middle;resizable=0;points=[];autosize=1;strokeColor=none;fillColor=none;fontSize=49;fontColor=#FFFFFF;" parent="-v-0ilIZoySxreV-l9_N-323" vertex="1">
                    <mxGeometry y="16" width="60" height="70" as="geometry"/>
                </mxCell>
                <mxCell id="-v-0ilIZoySxreV-l9_N-322" value="-1" style="text;html=1;align=center;verticalAlign=middle;resizable=0;points=[];autosize=1;strokeColor=none;fillColor=none;fontSize=34;fontColor=#FFFFFF;" parent="-v-0ilIZoySxreV-l9_N-323" vertex="1">
                    <mxGeometry x="32" width="50" height="50" as="geometry"/>
                </mxCell>
                <mxCell id="-v-0ilIZoySxreV-l9_N-324" value="" style="endArrow=classic;html=1;strokeColor=#FFFFFF;strokeWidth=1;fontSize=34;fontColor=#FFFFFF;entryX=0;entryY=0.5;entryDx=0;entryDy=0;exitX=0.721;exitY=1.053;exitDx=0;exitDy=0;exitPerimeter=0;" parent="1" source="-v-0ilIZoySxreV-l9_N-164" target="-v-0ilIZoySxreV-l9_N-270" edge="1">
                    <mxGeometry width="50" height="50" relative="1" as="geometry">
                        <mxPoint x="600" y="910" as="sourcePoint"/>
                        <mxPoint x="650" y="860" as="targetPoint"/>
                    </mxGeometry>
                </mxCell>
                <mxCell id="-v-0ilIZoySxreV-l9_N-325" value="如果从E的视角出发，则V也是从E的视角出发(表示)" style="text;html=1;align=center;verticalAlign=middle;resizable=0;points=[];autosize=1;strokeColor=none;fillColor=none;fontSize=34;fontColor=#FFFFFF;" parent="1" vertex="1">
                    <mxGeometry x="-5" y="1210" width="790" height="50" as="geometry"/>
                </mxCell>
                <mxCell id="-v-0ilIZoySxreV-l9_N-326" value="从V的视角出发，原来的E也得从V的视角出发(就是V^-1)&lt;br&gt;逆矩阵：反向变换" style="text;html=1;align=center;verticalAlign=middle;resizable=0;points=[];autosize=1;strokeColor=none;fillColor=none;fontSize=34;fontColor=#FFFFFF;" parent="1" vertex="1">
                    <mxGeometry x="870" y="1185" width="860" height="100" as="geometry"/>
                </mxCell>
                <mxCell id="-v-0ilIZoySxreV-l9_N-330" value="&lt;font style=&quot;font-size: 40px;&quot;&gt;一个点，发生了运动（假设是线性变换） -&amp;gt; 移动到了一个新的点&lt;/font&gt;" style="text;html=1;align=center;verticalAlign=middle;resizable=0;points=[];autosize=1;strokeColor=none;fillColor=none;fontSize=20;fontColor=#FFFFFF;" parent="1" vertex="1">
                    <mxGeometry x="-160" y="1710" width="1160" height="60" as="geometry"/>
                </mxCell>
                <mxCell id="-v-0ilIZoySxreV-l9_N-361" value="" style="group" parent="1" vertex="1" connectable="0">
                    <mxGeometry x="180" y="2090" width="355" height="224" as="geometry"/>
                </mxCell>
                <mxCell id="-v-0ilIZoySxreV-l9_N-352" value="" style="endArrow=classic;html=1;strokeColor=#FFFFFF;strokeWidth=1;fontColor=#FFFFFF;dashed=1;exitX=0.5;exitY=1;exitDx=0;exitDy=0;" parent="-v-0ilIZoySxreV-l9_N-361" source="-v-0ilIZoySxreV-l9_N-332" edge="1">
                    <mxGeometry width="50" height="50" relative="1" as="geometry">
                        <mxPoint x="191" y="61" as="sourcePoint"/>
                        <mxPoint x="191" y="190" as="targetPoint"/>
                    </mxGeometry>
                </mxCell>
                <mxCell id="-v-0ilIZoySxreV-l9_N-353" value="" style="endArrow=classic;html=1;strokeColor=#FFFFFF;strokeWidth=1;fontColor=#FFFFFF;dashed=1;" parent="-v-0ilIZoySxreV-l9_N-361" edge="1">
                    <mxGeometry width="50" height="50" relative="1" as="geometry">
                        <mxPoint x="188" y="56" as="sourcePoint"/>
                        <mxPoint x="43" y="56" as="targetPoint"/>
                    </mxGeometry>
                </mxCell>
                <mxCell id="-v-0ilIZoySxreV-l9_N-334" value="" style="endArrow=none;html=1;strokeColor=#FFFFFF;strokeWidth=1;fontColor=#FFFFFF;" parent="-v-0ilIZoySxreV-l9_N-361" edge="1">
                    <mxGeometry width="50" height="50" relative="1" as="geometry">
                        <mxPoint x="43" y="190" as="sourcePoint"/>
                        <mxPoint x="323" y="190" as="targetPoint"/>
                    </mxGeometry>
                </mxCell>
                <mxCell id="-v-0ilIZoySxreV-l9_N-335" value="" style="endArrow=none;html=1;strokeColor=#FFFFFF;strokeWidth=1;fontColor=#FFFFFF;" parent="-v-0ilIZoySxreV-l9_N-361" edge="1">
                    <mxGeometry width="50" height="50" relative="1" as="geometry">
                        <mxPoint x="43" y="190" as="sourcePoint"/>
                        <mxPoint x="43" as="targetPoint"/>
                    </mxGeometry>
                </mxCell>
                <mxCell id="-v-0ilIZoySxreV-l9_N-336" value="" style="endArrow=classic;html=1;strokeWidth=1;" parent="-v-0ilIZoySxreV-l9_N-361" edge="1">
                    <mxGeometry width="50" height="50" relative="1" as="geometry">
                        <mxPoint x="43" y="190" as="sourcePoint"/>
                        <mxPoint x="43" y="100" as="targetPoint"/>
                    </mxGeometry>
                </mxCell>
                <mxCell id="-v-0ilIZoySxreV-l9_N-337" value="" style="endArrow=classic;html=1;strokeWidth=1;" parent="-v-0ilIZoySxreV-l9_N-361" edge="1">
                    <mxGeometry width="50" height="50" relative="1" as="geometry">
                        <mxPoint x="43" y="190" as="sourcePoint"/>
                        <mxPoint x="143" y="190" as="targetPoint"/>
                    </mxGeometry>
                </mxCell>
                <mxCell id="-v-0ilIZoySxreV-l9_N-338" value="e1" style="text;html=1;align=center;verticalAlign=middle;resizable=0;points=[];autosize=1;strokeColor=none;fillColor=none;fontSize=20;container=0;" parent="-v-0ilIZoySxreV-l9_N-361" vertex="1">
                    <mxGeometry x="115" y="184" width="50" height="40" as="geometry"/>
                </mxCell>
                <mxCell id="-v-0ilIZoySxreV-l9_N-339" value="&lt;font style=&quot;font-size: 20px;&quot;&gt;e2&lt;/font&gt;" style="text;html=1;align=center;verticalAlign=middle;resizable=0;points=[];autosize=1;strokeColor=none;fillColor=none;container=0;" parent="-v-0ilIZoySxreV-l9_N-361" vertex="1">
                    <mxGeometry y="85" width="50" height="40" as="geometry"/>
                </mxCell>
                <mxCell id="-v-0ilIZoySxreV-l9_N-350" value="x2" style="text;html=1;align=center;verticalAlign=middle;resizable=0;points=[];autosize=1;strokeColor=none;fillColor=none;fontSize=20;fontColor=#FFFFFF;container=0;" parent="-v-0ilIZoySxreV-l9_N-361" vertex="1">
                    <mxGeometry y="40" width="40" height="40" as="geometry"/>
                </mxCell>
                <mxCell id="-v-0ilIZoySxreV-l9_N-347" value="x1" style="text;html=1;align=center;verticalAlign=middle;resizable=0;points=[];autosize=1;strokeColor=none;fillColor=none;fontSize=20;fontColor=#FFFFFF;container=0;" parent="-v-0ilIZoySxreV-l9_N-361" vertex="1">
                    <mxGeometry x="174" y="183" width="40" height="40" as="geometry"/>
                </mxCell>
                <mxCell id="-v-0ilIZoySxreV-l9_N-356" value="" style="group" parent="-v-0ilIZoySxreV-l9_N-361" vertex="1" connectable="0">
                    <mxGeometry x="45" y="51" width="151" height="138" as="geometry"/>
                </mxCell>
                <mxCell id="-v-0ilIZoySxreV-l9_N-332" value="" style="ellipse;whiteSpace=wrap;html=1;aspect=fixed;strokeColor=#FFFFFF;fontColor=#FFFFFF;fillColor=#00FF00;container=0;" parent="-v-0ilIZoySxreV-l9_N-356" vertex="1">
                    <mxGeometry x="141" width="10" height="10" as="geometry"/>
                </mxCell>
                <mxCell id="-v-0ilIZoySxreV-l9_N-351" value="" style="endArrow=classic;html=1;strokeColor=#00FF00;strokeWidth=1;fontColor=#FFFFFF;entryX=0;entryY=0.5;entryDx=0;entryDy=0;" parent="-v-0ilIZoySxreV-l9_N-356" edge="1">
                    <mxGeometry width="50" height="50" relative="1" as="geometry">
                        <mxPoint y="138" as="sourcePoint"/>
                        <mxPoint x="143" y="6" as="targetPoint"/>
                    </mxGeometry>
                </mxCell>
                <mxCell id="Mpn51JpIo_uOFOOzmmat-4" value="x向量" style="text;html=1;align=center;verticalAlign=middle;resizable=0;points=[];autosize=1;strokeColor=none;fillColor=none;fontSize=35;strokeWidth=27;" parent="-v-0ilIZoySxreV-l9_N-361" vertex="1">
                    <mxGeometry x="165" width="110" height="60" as="geometry"/>
                </mxCell>
                <mxCell id="-v-0ilIZoySxreV-l9_N-362" value="" style="group;rotation=-30;" parent="1" vertex="1" connectable="0">
                    <mxGeometry x="690" y="2040" width="339.4" height="241.66" as="geometry"/>
                </mxCell>
                <mxCell id="-v-0ilIZoySxreV-l9_N-363" value="" style="endArrow=classic;html=1;strokeColor=#FFFFFF;strokeWidth=1;fontColor=#FFFFFF;dashed=1;exitX=0.5;exitY=1;exitDx=0;exitDy=0;" parent="-v-0ilIZoySxreV-l9_N-362" source="-v-0ilIZoySxreV-l9_N-374" edge="1">
                    <mxGeometry width="50" height="50" relative="1" as="geometry">
                        <mxPoint x="172.09733174970012" y="132.65691688569697" as="sourcePoint"/>
                        <mxPoint x="239.3468673534153" y="195.41754442972575" as="targetPoint"/>
                    </mxGeometry>
                </mxCell>
                <mxCell id="-v-0ilIZoySxreV-l9_N-364" value="" style="endArrow=classic;html=1;strokeColor=#FFFFFF;strokeWidth=1;fontColor=#FFFFFF;dashed=1;" parent="-v-0ilIZoySxreV-l9_N-362" edge="1">
                    <mxGeometry width="50" height="50" relative="1" as="geometry">
                        <mxPoint x="165.79268778685181" y="130.9758286479105" as="sourcePoint"/>
                        <mxPoint x="34.44593856084561" y="171.88230910071496" as="targetPoint"/>
                    </mxGeometry>
                </mxCell>
                <mxCell id="-v-0ilIZoySxreV-l9_N-365" value="" style="endArrow=none;html=1;strokeColor=#FFFFFF;strokeWidth=1;fontColor=#FFFFFF;" parent="-v-0ilIZoySxreV-l9_N-362" edge="1">
                    <mxGeometry width="50" height="50" relative="1" as="geometry">
                        <mxPoint x="104.84779614598492" y="236.88438762845905" as="sourcePoint"/>
                        <mxPoint x="359.135102647533" y="158.43360319842307" as="targetPoint"/>
                    </mxGeometry>
                </mxCell>
                <mxCell id="-v-0ilIZoySxreV-l9_N-366" value="" style="endArrow=none;html=1;strokeColor=#FFFFFF;strokeWidth=1;fontColor=#FFFFFF;" parent="-v-0ilIZoySxreV-l9_N-362" edge="1">
                    <mxGeometry width="50" height="50" relative="1" as="geometry">
                        <mxPoint x="104.84779614598492" y="236.88438762845905" as="sourcePoint"/>
                        <mxPoint x="5.024266734220225" y="144.4245345502024" as="targetPoint"/>
                    </mxGeometry>
                </mxCell>
                <mxCell id="-v-0ilIZoySxreV-l9_N-367" value="" style="endArrow=classic;html=1;strokeWidth=1;" parent="-v-0ilIZoySxreV-l9_N-362" edge="1">
                    <mxGeometry width="50" height="50" relative="1" as="geometry">
                        <mxPoint x="104.84779614598492" y="236.88438762845905" as="sourcePoint"/>
                        <mxPoint x="57.562966424622694" y="193.1760934460104" as="targetPoint"/>
                    </mxGeometry>
                </mxCell>
                <mxCell id="-v-0ilIZoySxreV-l9_N-368" value="" style="endArrow=classic;html=1;strokeWidth=1;" parent="-v-0ilIZoySxreV-l9_N-362" edge="1">
                    <mxGeometry width="50" height="50" relative="1" as="geometry">
                        <mxPoint x="104.84779614598492" y="236.88438762845905" as="sourcePoint"/>
                        <mxPoint x="195.21435961347717" y="208.8662503320176" as="targetPoint"/>
                    </mxGeometry>
                </mxCell>
                <mxCell id="-v-0ilIZoySxreV-l9_N-369" value="v1" style="text;html=1;align=center;verticalAlign=middle;resizable=0;points=[];autosize=1;strokeColor=none;fillColor=none;fontSize=20;container=0;rotation=-30;" parent="-v-0ilIZoySxreV-l9_N-362" vertex="1">
                    <mxGeometry x="178.82954527610514" y="204.94371111051578" width="40" height="40" as="geometry"/>
                </mxCell>
                <mxCell id="-v-0ilIZoySxreV-l9_N-370" value="&lt;font style=&quot;font-size: 20px;&quot;&gt;v2&lt;/font&gt;" style="text;html=1;align=center;verticalAlign=middle;resizable=0;points=[];autosize=1;strokeColor=none;fillColor=none;container=0;rotation=-30;" parent="-v-0ilIZoySxreV-l9_N-362" vertex="1">
                    <mxGeometry x="22.264220198705807" y="189.25355422450858" width="40" height="40" as="geometry"/>
                </mxCell>
                <mxCell id="-v-0ilIZoySxreV-l9_N-371" value="z2" style="text;html=1;align=center;verticalAlign=middle;resizable=0;points=[];autosize=1;strokeColor=none;fillColor=none;fontSize=20;fontColor=#FFFFFF;container=0;rotation=-30;" parent="-v-0ilIZoySxreV-l9_N-362" vertex="1">
                    <mxGeometry x="-5.483473203860268" y="169.08049537107084" width="40" height="40" as="geometry"/>
                </mxCell>
                <mxCell id="-v-0ilIZoySxreV-l9_N-372" value="z1" style="text;html=1;align=center;verticalAlign=middle;resizable=0;points=[];autosize=1;strokeColor=none;fillColor=none;fontSize=20;fontColor=#FFFFFF;container=0;rotation=-30;" parent="-v-0ilIZoySxreV-l9_N-362" vertex="1">
                    <mxGeometry x="227.78835342152672" y="189.81391697043748" width="40" height="40" as="geometry"/>
                </mxCell>
                <mxCell id="-v-0ilIZoySxreV-l9_N-373" value="" style="group;rotation=-30;" parent="-v-0ilIZoySxreV-l9_N-362" vertex="1" connectable="0">
                    <mxGeometry x="58.613740418430744" y="142.18308356648706" width="158.66687306501544" height="77.33005893817827" as="geometry"/>
                </mxCell>
                <mxCell id="-v-0ilIZoySxreV-l9_N-374" value="" style="ellipse;whiteSpace=wrap;html=1;aspect=fixed;strokeColor=#FFFFFF;fontColor=#FFFFFF;fillColor=#00FF00;container=0;rotation=-30;" parent="-v-0ilIZoySxreV-l9_N-373" vertex="1">
                    <mxGeometry x="106.07002483150052" y="-16.59628735658097" width="7.241155795314319" height="7.241155795314319" as="geometry"/>
                </mxCell>
                <mxCell id="-v-0ilIZoySxreV-l9_N-375" value="" style="endArrow=classic;html=1;strokeColor=#ee00ff;strokeWidth=1;fontColor=#FFFFFF;entryX=0;entryY=0.5;entryDx=0;entryDy=0;" parent="-v-0ilIZoySxreV-l9_N-373" edge="1">
                    <mxGeometry width="50" height="50" relative="1" as="geometry">
                        <mxPoint x="47.28482972136223" y="93.5805785701143" as="sourcePoint"/>
                        <mxPoint x="107.17894736842105" y="-10.646892172647734" as="targetPoint"/>
                    </mxGeometry>
                </mxCell>
                <mxCell id="Mpn51JpIo_uOFOOzmmat-5" value="z向量" style="text;html=1;align=center;verticalAlign=middle;resizable=0;points=[];autosize=1;strokeColor=none;fillColor=none;fontSize=35;strokeWidth=27;" parent="-v-0ilIZoySxreV-l9_N-362" vertex="1">
                    <mxGeometry x="142" y="70" width="110" height="60" as="geometry"/>
                </mxCell>
                <mxCell id="-v-0ilIZoySxreV-l9_N-377" value="" style="group" parent="1" vertex="1" connectable="0">
                    <mxGeometry x="310" y="2380" width="530" height="270" as="geometry"/>
                </mxCell>
                <mxCell id="-v-0ilIZoySxreV-l9_N-378" value="" style="endArrow=classic;html=1;strokeColor=#FFFFFF;strokeWidth=1;fontColor=#FFFFFF;dashed=1;exitX=0.5;exitY=1;exitDx=0;exitDy=0;" parent="-v-0ilIZoySxreV-l9_N-377" source="-v-0ilIZoySxreV-l9_N-389" edge="1">
                    <mxGeometry width="50" height="50" relative="1" as="geometry">
                        <mxPoint x="191" y="61" as="sourcePoint"/>
                        <mxPoint x="191" y="190" as="targetPoint"/>
                    </mxGeometry>
                </mxCell>
                <mxCell id="-v-0ilIZoySxreV-l9_N-379" value="" style="endArrow=classic;html=1;strokeColor=#FFFFFF;strokeWidth=1;fontColor=#FFFFFF;dashed=1;" parent="-v-0ilIZoySxreV-l9_N-377" edge="1">
                    <mxGeometry width="50" height="50" relative="1" as="geometry">
                        <mxPoint x="188" y="56" as="sourcePoint"/>
                        <mxPoint x="43" y="56" as="targetPoint"/>
                    </mxGeometry>
                </mxCell>
                <mxCell id="-v-0ilIZoySxreV-l9_N-380" value="" style="endArrow=none;html=1;strokeColor=#FFFFFF;strokeWidth=1;fontColor=#FFFFFF;" parent="-v-0ilIZoySxreV-l9_N-377" edge="1">
                    <mxGeometry width="50" height="50" relative="1" as="geometry">
                        <mxPoint x="43" y="190" as="sourcePoint"/>
                        <mxPoint x="323" y="190" as="targetPoint"/>
                    </mxGeometry>
                </mxCell>
                <mxCell id="-v-0ilIZoySxreV-l9_N-381" value="" style="endArrow=none;html=1;strokeColor=#FFFFFF;strokeWidth=1;fontColor=#FFFFFF;" parent="-v-0ilIZoySxreV-l9_N-377" edge="1">
                    <mxGeometry width="50" height="50" relative="1" as="geometry">
                        <mxPoint x="43" y="190" as="sourcePoint"/>
                        <mxPoint x="43" as="targetPoint"/>
                    </mxGeometry>
                </mxCell>
                <mxCell id="-v-0ilIZoySxreV-l9_N-382" value="" style="endArrow=classic;html=1;strokeWidth=1;" parent="-v-0ilIZoySxreV-l9_N-377" edge="1">
                    <mxGeometry width="50" height="50" relative="1" as="geometry">
                        <mxPoint x="43" y="190" as="sourcePoint"/>
                        <mxPoint x="43" y="100" as="targetPoint"/>
                    </mxGeometry>
                </mxCell>
                <mxCell id="-v-0ilIZoySxreV-l9_N-383" value="" style="endArrow=classic;html=1;strokeWidth=1;" parent="-v-0ilIZoySxreV-l9_N-377" edge="1">
                    <mxGeometry width="50" height="50" relative="1" as="geometry">
                        <mxPoint x="43" y="190" as="sourcePoint"/>
                        <mxPoint x="143" y="190" as="targetPoint"/>
                    </mxGeometry>
                </mxCell>
                <mxCell id="-v-0ilIZoySxreV-l9_N-384" value="e1" style="text;html=1;align=center;verticalAlign=middle;resizable=0;points=[];autosize=1;strokeColor=none;fillColor=none;fontSize=20;container=0;" parent="-v-0ilIZoySxreV-l9_N-377" vertex="1">
                    <mxGeometry x="115" y="184" width="50" height="40" as="geometry"/>
                </mxCell>
                <mxCell id="-v-0ilIZoySxreV-l9_N-385" value="&lt;font style=&quot;font-size: 20px;&quot;&gt;e2&lt;/font&gt;" style="text;html=1;align=center;verticalAlign=middle;resizable=0;points=[];autosize=1;strokeColor=none;fillColor=none;container=0;" parent="-v-0ilIZoySxreV-l9_N-377" vertex="1">
                    <mxGeometry y="85" width="50" height="40" as="geometry"/>
                </mxCell>
                <mxCell id="-v-0ilIZoySxreV-l9_N-386" value="x2" style="text;html=1;align=center;verticalAlign=middle;resizable=0;points=[];autosize=1;strokeColor=none;fillColor=none;fontSize=20;fontColor=#FFFFFF;container=0;" parent="-v-0ilIZoySxreV-l9_N-377" vertex="1">
                    <mxGeometry y="40" width="40" height="40" as="geometry"/>
                </mxCell>
                <mxCell id="-v-0ilIZoySxreV-l9_N-387" value="x1" style="text;html=1;align=center;verticalAlign=middle;resizable=0;points=[];autosize=1;strokeColor=none;fillColor=none;fontSize=20;fontColor=#FFFFFF;container=0;" parent="-v-0ilIZoySxreV-l9_N-377" vertex="1">
                    <mxGeometry x="174" y="183" width="40" height="40" as="geometry"/>
                </mxCell>
                <mxCell id="-v-0ilIZoySxreV-l9_N-388" value="" style="group" parent="-v-0ilIZoySxreV-l9_N-377" vertex="1" connectable="0">
                    <mxGeometry x="45" y="51" width="234.39999999999998" height="138.00000000000014" as="geometry"/>
                </mxCell>
                <mxCell id="-v-0ilIZoySxreV-l9_N-389" value="" style="ellipse;whiteSpace=wrap;html=1;aspect=fixed;strokeColor=#FFFFFF;fontColor=#FFFFFF;fillColor=#00FF00;container=0;" parent="-v-0ilIZoySxreV-l9_N-388" vertex="1">
                    <mxGeometry x="141" width="10" height="10" as="geometry"/>
                </mxCell>
                <mxCell id="-v-0ilIZoySxreV-l9_N-390" value="" style="endArrow=classic;html=1;strokeColor=#00FF00;strokeWidth=1;fontColor=#FFFFFF;entryX=0;entryY=0.5;entryDx=0;entryDy=0;" parent="-v-0ilIZoySxreV-l9_N-388" edge="1">
                    <mxGeometry width="50" height="50" relative="1" as="geometry">
                        <mxPoint y="138" as="sourcePoint"/>
                        <mxPoint x="143" y="6" as="targetPoint"/>
                    </mxGeometry>
                </mxCell>
                <mxCell id="-v-0ilIZoySxreV-l9_N-422" value="" style="group;rotation=-30;" parent="-v-0ilIZoySxreV-l9_N-388" vertex="1" connectable="0">
                    <mxGeometry x="-105" y="-98.65999999999985" width="339.4" height="241.66" as="geometry"/>
                </mxCell>
                <mxCell id="-v-0ilIZoySxreV-l9_N-423" value="" style="endArrow=classic;html=1;strokeColor=#FFFFFF;strokeWidth=1;fontColor=#FFFFFF;dashed=1;exitX=0.5;exitY=1;exitDx=0;exitDy=0;" parent="-v-0ilIZoySxreV-l9_N-422" source="-v-0ilIZoySxreV-l9_N-434" edge="1">
                    <mxGeometry width="50" height="50" relative="1" as="geometry">
                        <mxPoint x="172.09733174970012" y="132.65691688569697" as="sourcePoint"/>
                        <mxPoint x="239.3468673534153" y="195.41754442972575" as="targetPoint"/>
                    </mxGeometry>
                </mxCell>
                <mxCell id="-v-0ilIZoySxreV-l9_N-424" value="" style="endArrow=classic;html=1;strokeColor=#FFFFFF;strokeWidth=1;fontColor=#FFFFFF;dashed=1;" parent="-v-0ilIZoySxreV-l9_N-422" edge="1">
                    <mxGeometry width="50" height="50" relative="1" as="geometry">
                        <mxPoint x="165.79268778685181" y="130.9758286479105" as="sourcePoint"/>
                        <mxPoint x="34.44593856084561" y="171.88230910071496" as="targetPoint"/>
                    </mxGeometry>
                </mxCell>
                <mxCell id="-v-0ilIZoySxreV-l9_N-425" value="" style="endArrow=none;html=1;strokeColor=#FFFFFF;strokeWidth=1;fontColor=#FFFFFF;" parent="-v-0ilIZoySxreV-l9_N-422" edge="1">
                    <mxGeometry width="50" height="50" relative="1" as="geometry">
                        <mxPoint x="104.84779614598492" y="236.88438762845905" as="sourcePoint"/>
                        <mxPoint x="359.135102647533" y="158.43360319842307" as="targetPoint"/>
                    </mxGeometry>
                </mxCell>
                <mxCell id="-v-0ilIZoySxreV-l9_N-426" value="" style="endArrow=none;html=1;strokeColor=#FFFFFF;strokeWidth=1;fontColor=#FFFFFF;" parent="-v-0ilIZoySxreV-l9_N-422" edge="1">
                    <mxGeometry width="50" height="50" relative="1" as="geometry">
                        <mxPoint x="104.84779614598492" y="236.88438762845905" as="sourcePoint"/>
                        <mxPoint x="5.024266734220225" y="144.4245345502024" as="targetPoint"/>
                    </mxGeometry>
                </mxCell>
                <mxCell id="-v-0ilIZoySxreV-l9_N-427" value="" style="endArrow=classic;html=1;strokeWidth=1;" parent="-v-0ilIZoySxreV-l9_N-422" edge="1">
                    <mxGeometry width="50" height="50" relative="1" as="geometry">
                        <mxPoint x="104.84779614598492" y="236.88438762845905" as="sourcePoint"/>
                        <mxPoint x="57.562966424622694" y="193.1760934460104" as="targetPoint"/>
                    </mxGeometry>
                </mxCell>
                <mxCell id="-v-0ilIZoySxreV-l9_N-428" value="" style="endArrow=classic;html=1;strokeWidth=1;" parent="-v-0ilIZoySxreV-l9_N-422" edge="1">
                    <mxGeometry width="50" height="50" relative="1" as="geometry">
                        <mxPoint x="104.84779614598492" y="236.88438762845905" as="sourcePoint"/>
                        <mxPoint x="195.21435961347717" y="208.8662503320176" as="targetPoint"/>
                    </mxGeometry>
                </mxCell>
                <mxCell id="-v-0ilIZoySxreV-l9_N-429" value="v1" style="text;html=1;align=center;verticalAlign=middle;resizable=0;points=[];autosize=1;strokeColor=none;fillColor=none;fontSize=20;container=0;rotation=-30;" parent="-v-0ilIZoySxreV-l9_N-422" vertex="1">
                    <mxGeometry x="178.82954527610514" y="204.94371111051578" width="40" height="40" as="geometry"/>
                </mxCell>
                <mxCell id="-v-0ilIZoySxreV-l9_N-430" value="&lt;font style=&quot;font-size: 20px;&quot;&gt;v2&lt;/font&gt;" style="text;html=1;align=center;verticalAlign=middle;resizable=0;points=[];autosize=1;strokeColor=none;fillColor=none;container=0;rotation=-30;" parent="-v-0ilIZoySxreV-l9_N-422" vertex="1">
                    <mxGeometry x="22.264220198705807" y="189.25355422450858" width="40" height="40" as="geometry"/>
                </mxCell>
                <mxCell id="-v-0ilIZoySxreV-l9_N-431" value="z2" style="text;html=1;align=center;verticalAlign=middle;resizable=0;points=[];autosize=1;strokeColor=none;fillColor=none;fontSize=20;fontColor=#FFFFFF;container=0;rotation=-30;" parent="-v-0ilIZoySxreV-l9_N-422" vertex="1">
                    <mxGeometry x="-5.483473203860268" y="169.08049537107084" width="40" height="40" as="geometry"/>
                </mxCell>
                <mxCell id="-v-0ilIZoySxreV-l9_N-432" value="z1" style="text;html=1;align=center;verticalAlign=middle;resizable=0;points=[];autosize=1;strokeColor=none;fillColor=none;fontSize=20;fontColor=#FFFFFF;container=0;rotation=-30;" parent="-v-0ilIZoySxreV-l9_N-422" vertex="1">
                    <mxGeometry x="227.78835342152672" y="189.81391697043748" width="40" height="40" as="geometry"/>
                </mxCell>
                <mxCell id="-v-0ilIZoySxreV-l9_N-433" value="" style="group;rotation=-30;" parent="-v-0ilIZoySxreV-l9_N-422" vertex="1" connectable="0">
                    <mxGeometry x="58.613740418430744" y="142.18308356648706" width="158.66687306501544" height="77.33005893817827" as="geometry"/>
                </mxCell>
                <mxCell id="-v-0ilIZoySxreV-l9_N-434" value="" style="ellipse;whiteSpace=wrap;html=1;aspect=fixed;strokeColor=#FFFFFF;fontColor=#FFFFFF;fillColor=#00FF00;container=0;rotation=-30;" parent="-v-0ilIZoySxreV-l9_N-433" vertex="1">
                    <mxGeometry x="106.07002483150052" y="-16.59628735658097" width="7.241155795314319" height="7.241155795314319" as="geometry"/>
                </mxCell>
                <mxCell id="-v-0ilIZoySxreV-l9_N-435" value="" style="endArrow=classic;html=1;strokeColor=#ee00ff;strokeWidth=1;fontColor=#FFFFFF;entryX=0;entryY=0.5;entryDx=0;entryDy=0;" parent="-v-0ilIZoySxreV-l9_N-433" edge="1">
                    <mxGeometry width="50" height="50" relative="1" as="geometry">
                        <mxPoint x="47.28482972136223" y="93.5805785701143" as="sourcePoint"/>
                        <mxPoint x="107.17894736842105" y="-10.646892172647734" as="targetPoint"/>
                    </mxGeometry>
                </mxCell>
                <mxCell id="-v-0ilIZoySxreV-l9_N-436" value="" style="endArrow=classic;html=1;dashed=1;strokeColor=#FFFFFF;strokeWidth=1;fontSize=40;fontColor=#FFFFFF;" parent="-v-0ilIZoySxreV-l9_N-422" edge="1">
                    <mxGeometry width="50" height="50" relative="1" as="geometry">
                        <mxPoint x="249" y="87.65999999999985" as="sourcePoint"/>
                        <mxPoint x="170" y="117.65999999999985" as="targetPoint"/>
                        <Array as="points">
                            <mxPoint x="210" y="47.659999999999854"/>
                            <mxPoint x="180" y="77.65999999999985"/>
                        </Array>
                    </mxGeometry>
                </mxCell>
                <mxCell id="Mpn51JpIo_uOFOOzmmat-2" value="理解方法：线性运动(M)可以理解为坐标系发生了线性变换，同时固定在原来坐标系上的点也跟着发生了运动。注意运动后的点用统一的（原来的）坐标系进行表示" style="text;strokeColor=none;align=left;fillColor=none;html=1;verticalAlign=middle;whiteSpace=wrap;rounded=0;strokeWidth=27;fontSize=35;" parent="1" vertex="1">
                    <mxGeometry x="-170" y="1830" width="1920" height="110" as="geometry"/>
                </mxCell>
                <mxCell id="Mpn51JpIo_uOFOOzmmat-3" value="x = Ex&lt;br&gt;z = Ez&lt;br&gt;z = Vx" style="text;html=1;align=center;verticalAlign=middle;resizable=0;points=[];autosize=1;strokeColor=none;fillColor=none;fontSize=35;strokeWidth=27;" parent="1" vertex="1">
                    <mxGeometry x="805" y="2442" width="120" height="140" as="geometry"/>
                </mxCell>
                <mxCell id="Mpn51JpIo_uOFOOzmmat-6" value="x和v都是基于E的表示&lt;br&gt;M表示刚开始E下的x，由于E变成了M，那么x -&amp;gt; v" style="text;html=1;align=center;verticalAlign=middle;resizable=0;points=[];autosize=1;strokeColor=none;fillColor=none;fontSize=35;strokeWidth=27;" parent="1" vertex="1">
                    <mxGeometry x="497" y="2630" width="790" height="100" as="geometry"/>
                </mxCell>
            </root>
        </mxGraphModel>
    </diagram>
    <diagram id="RhI6Wi9aW5jrvvRkMTWN" name="理解XVV^T">
        <mxGraphModel dx="1300" dy="963" grid="1" gridSize="10" guides="1" tooltips="1" connect="1" arrows="1" fold="1" page="0" pageScale="1" pageWidth="827" pageHeight="1169" background="none" math="1" shadow="0">
            <root>
                <mxCell id="0"/>
                <mxCell id="1" parent="0"/>
                <mxCell id="p-3cGX55Dko9txTsu5O5-56" value="" style="group;" parent="1" vertex="1" connectable="0">
                    <mxGeometry x="200" y="120" width="160" height="40" as="geometry"/>
                </mxCell>
                <mxCell id="AEvMsYldUsgchmkXQAS7-4" value="" style="rounded=0;whiteSpace=wrap;html=1;strokeWidth=1;fontSize=35;fillColor=none;perimeterSpacing=0;" parent="p-3cGX55Dko9txTsu5O5-56" vertex="1">
                    <mxGeometry width="160" height="40" as="geometry"/>
                </mxCell>
                <mxCell id="AEvMsYldUsgchmkXQAS7-5" value="" style="ellipse;whiteSpace=wrap;html=1;aspect=fixed;strokeWidth=1;fontSize=35;fillColor=none;" parent="p-3cGX55Dko9txTsu5O5-56" vertex="1">
                    <mxGeometry x="15" y="15" width="10" height="10" as="geometry"/>
                </mxCell>
                <mxCell id="p-3cGX55Dko9txTsu5O5-52" value="" style="ellipse;whiteSpace=wrap;html=1;aspect=fixed;strokeWidth=1;fontSize=35;fillColor=none;" parent="p-3cGX55Dko9txTsu5O5-56" vertex="1">
                    <mxGeometry x="55" y="15" width="10" height="10" as="geometry"/>
                </mxCell>
                <mxCell id="p-3cGX55Dko9txTsu5O5-53" value="" style="ellipse;whiteSpace=wrap;html=1;aspect=fixed;strokeWidth=1;fontSize=35;fillColor=none;" parent="p-3cGX55Dko9txTsu5O5-56" vertex="1">
                    <mxGeometry x="95" y="15" width="10" height="10" as="geometry"/>
                </mxCell>
                <mxCell id="p-3cGX55Dko9txTsu5O5-54" value="" style="ellipse;whiteSpace=wrap;html=1;aspect=fixed;strokeWidth=1;fontSize=35;fillColor=none;" parent="p-3cGX55Dko9txTsu5O5-56" vertex="1">
                    <mxGeometry x="135" y="15" width="10" height="10" as="geometry"/>
                </mxCell>
                <mxCell id="p-3cGX55Dko9txTsu5O5-57" value="" style="group;" parent="1" vertex="1" connectable="0">
                    <mxGeometry x="200" y="160" width="160" height="40" as="geometry"/>
                </mxCell>
                <mxCell id="p-3cGX55Dko9txTsu5O5-58" value="" style="rounded=0;whiteSpace=wrap;html=1;strokeWidth=1;fontSize=35;fillColor=none;perimeterSpacing=0;" parent="p-3cGX55Dko9txTsu5O5-57" vertex="1">
                    <mxGeometry width="160" height="40" as="geometry"/>
                </mxCell>
                <mxCell id="p-3cGX55Dko9txTsu5O5-59" value="" style="ellipse;whiteSpace=wrap;html=1;aspect=fixed;strokeWidth=1;fontSize=35;fillColor=none;" parent="p-3cGX55Dko9txTsu5O5-57" vertex="1">
                    <mxGeometry x="15" y="15" width="10" height="10" as="geometry"/>
                </mxCell>
                <mxCell id="p-3cGX55Dko9txTsu5O5-60" value="" style="ellipse;whiteSpace=wrap;html=1;aspect=fixed;strokeWidth=1;fontSize=35;fillColor=none;" parent="p-3cGX55Dko9txTsu5O5-57" vertex="1">
                    <mxGeometry x="55" y="15" width="10" height="10" as="geometry"/>
                </mxCell>
                <mxCell id="p-3cGX55Dko9txTsu5O5-61" value="" style="ellipse;whiteSpace=wrap;html=1;aspect=fixed;strokeWidth=1;fontSize=35;fillColor=none;" parent="p-3cGX55Dko9txTsu5O5-57" vertex="1">
                    <mxGeometry x="95" y="15" width="10" height="10" as="geometry"/>
                </mxCell>
                <mxCell id="p-3cGX55Dko9txTsu5O5-62" value="" style="ellipse;whiteSpace=wrap;html=1;aspect=fixed;strokeWidth=1;fontSize=35;fillColor=none;" parent="p-3cGX55Dko9txTsu5O5-57" vertex="1">
                    <mxGeometry x="135" y="15" width="10" height="10" as="geometry"/>
                </mxCell>
                <mxCell id="VuDuHgzcV1osj_265jWs-1" value="第1个样本点" style="text;html=1;align=center;verticalAlign=middle;resizable=0;points=[];autosize=1;strokeColor=none;fillColor=none;fontSize=16;" parent="1" vertex="1">
                    <mxGeometry x="45" y="125" width="110" height="30" as="geometry"/>
                </mxCell>
                <mxCell id="VuDuHgzcV1osj_265jWs-2" value="第2个样本点" style="text;html=1;align=center;verticalAlign=middle;resizable=0;points=[];autosize=1;strokeColor=none;fillColor=none;fontSize=16;" parent="1" vertex="1">
                    <mxGeometry x="45" y="170" width="110" height="30" as="geometry"/>
                </mxCell>
                <mxCell id="VuDuHgzcV1osj_265jWs-3" value="2x4&lt;br&gt;&lt;br&gt;2个样本点" style="text;html=1;align=center;verticalAlign=middle;resizable=1;points=[];autosize=0;strokeColor=none;fillColor=none;fontSize=16;" parent="1" vertex="1">
                    <mxGeometry x="220" y="270" width="100" height="80" as="geometry"/>
                </mxCell>
                <mxCell id="VuDuHgzcV1osj_265jWs-9" value="" style="endArrow=classic;html=1;strokeWidth=1;fontSize=16;entryX=0.125;entryY=0;entryDx=0;entryDy=0;entryPerimeter=0;" parent="1" target="AEvMsYldUsgchmkXQAS7-4" edge="1">
                    <mxGeometry width="50" height="50" relative="1" as="geometry">
                        <mxPoint x="200" y="90" as="sourcePoint"/>
                        <mxPoint x="230" y="50" as="targetPoint"/>
                    </mxGeometry>
                </mxCell>
                <mxCell id="VuDuHgzcV1osj_265jWs-10" value="" style="endArrow=classic;html=1;strokeWidth=1;fontSize=16;entryX=0.375;entryY=0;entryDx=0;entryDy=0;entryPerimeter=0;" parent="1" target="AEvMsYldUsgchmkXQAS7-4" edge="1">
                    <mxGeometry width="50" height="50" relative="1" as="geometry">
                        <mxPoint x="240" y="90" as="sourcePoint"/>
                        <mxPoint x="260" y="110" as="targetPoint"/>
                    </mxGeometry>
                </mxCell>
                <mxCell id="VuDuHgzcV1osj_265jWs-11" value="" style="endArrow=classic;html=1;strokeWidth=1;fontSize=16;entryX=0.375;entryY=0;entryDx=0;entryDy=0;entryPerimeter=0;" parent="1" edge="1">
                    <mxGeometry width="50" height="50" relative="1" as="geometry">
                        <mxPoint x="280" y="90" as="sourcePoint"/>
                        <mxPoint x="300" y="120" as="targetPoint"/>
                    </mxGeometry>
                </mxCell>
                <mxCell id="VuDuHgzcV1osj_265jWs-12" value="" style="endArrow=classic;html=1;strokeWidth=1;fontSize=16;entryX=0.375;entryY=0;entryDx=0;entryDy=0;entryPerimeter=0;" parent="1" edge="1">
                    <mxGeometry width="50" height="50" relative="1" as="geometry">
                        <mxPoint x="320" y="90" as="sourcePoint"/>
                        <mxPoint x="340" y="120" as="targetPoint"/>
                    </mxGeometry>
                </mxCell>
                <mxCell id="VuDuHgzcV1osj_265jWs-13" value="花瓣长" style="text;html=1;align=center;verticalAlign=middle;resizable=0;points=[];autosize=1;strokeColor=none;fillColor=none;fontSize=10;" parent="1" vertex="1">
                    <mxGeometry x="170" y="68" width="50" height="30" as="geometry"/>
                </mxCell>
                <mxCell id="VuDuHgzcV1osj_265jWs-14" value="花瓣宽" style="text;html=1;align=center;verticalAlign=middle;resizable=0;points=[];autosize=1;strokeColor=none;fillColor=none;fontSize=10;" parent="1" vertex="1">
                    <mxGeometry x="210" y="68" width="50" height="30" as="geometry"/>
                </mxCell>
                <mxCell id="VuDuHgzcV1osj_265jWs-15" value="花萼长" style="text;html=1;align=center;verticalAlign=middle;resizable=0;points=[];autosize=1;strokeColor=none;fillColor=none;fontSize=10;" parent="1" vertex="1">
                    <mxGeometry x="255" y="68" width="50" height="30" as="geometry"/>
                </mxCell>
                <mxCell id="VuDuHgzcV1osj_265jWs-16" value="花萼宽" style="text;html=1;align=center;verticalAlign=middle;resizable=0;points=[];autosize=1;strokeColor=none;fillColor=none;fontSize=10;" parent="1" vertex="1">
                    <mxGeometry x="300" y="68" width="50" height="30" as="geometry"/>
                </mxCell>
                <mxCell id="VuDuHgzcV1osj_265jWs-17" value="4个特征：" style="text;html=1;align=center;verticalAlign=middle;resizable=0;points=[];autosize=1;strokeColor=none;fillColor=none;fontSize=10;" parent="1" vertex="1">
                    <mxGeometry x="100" y="68" width="70" height="30" as="geometry"/>
                </mxCell>
                <mxCell id="ENOX9HOKfSie7qkm4tKe-1" value="&lt;div style=&quot;color: rgb(204, 204, 204); font-size: 16px; line-height: 24px;&quot;&gt;&lt;div style=&quot;&quot;&gt;&lt;span style=&quot;color: rgb(204, 204, 204);&quot;&gt;样本点矩阵&lt;b&gt;X&lt;/b&gt;&lt;/span&gt;&lt;/div&gt;&lt;div style=&quot;font-weight: normal;&quot;&gt;&lt;span style=&quot;color: rgb(204, 204, 204);&quot;&gt;每行表示一个样本点，4列分别是4个特征&lt;/span&gt;&lt;/div&gt;&lt;/div&gt;" style="text;html=1;align=center;verticalAlign=middle;resizable=0;points=[];autosize=1;strokeColor=none;fillColor=none;fontSize=12;fontColor=#FFFFFF;strokeWidth=1;labelBackgroundColor=none;" parent="1" vertex="1">
                    <mxGeometry x="70" y="-40" width="310" height="60" as="geometry"/>
                </mxCell>
                <mxCell id="mTzwLqqa-nGqkQeWjX6M-1" value="1a&lt;br&gt;&lt;br&gt;&lt;br&gt;1b&lt;br&gt;&lt;br&gt;&lt;br&gt;1c&lt;br&gt;&lt;br&gt;&lt;br&gt;1d" style="rounded=0;whiteSpace=wrap;html=1;labelBackgroundColor=none;fontColor=default;fillColor=none;" parent="1" vertex="1">
                    <mxGeometry x="520" y="80" width="40" height="160" as="geometry"/>
                </mxCell>
                <mxCell id="mTzwLqqa-nGqkQeWjX6M-3" value="2a&lt;br&gt;&lt;br&gt;&lt;br&gt;2b&lt;br&gt;&lt;br&gt;&lt;br&gt;2c&lt;br&gt;&lt;br&gt;&lt;br&gt;2d" style="rounded=0;whiteSpace=wrap;html=1;labelBackgroundColor=none;fontColor=default;fillColor=none;" parent="1" vertex="1">
                    <mxGeometry x="570" y="80" width="40" height="160" as="geometry"/>
                </mxCell>
                <mxCell id="mTzwLqqa-nGqkQeWjX6M-4" value="方向1" style="text;html=1;align=center;verticalAlign=middle;resizable=0;points=[];autosize=1;strokeColor=none;fillColor=none;fontSize=11;" parent="1" vertex="1">
                    <mxGeometry x="510" y="50" width="50" height="30" as="geometry"/>
                </mxCell>
                <mxCell id="mTzwLqqa-nGqkQeWjX6M-5" value="方向2" style="text;html=1;align=center;verticalAlign=middle;resizable=0;points=[];autosize=1;strokeColor=none;fillColor=none;fontSize=11;" parent="1" vertex="1">
                    <mxGeometry x="565" y="50" width="50" height="30" as="geometry"/>
                </mxCell>
                <mxCell id="mTzwLqqa-nGqkQeWjX6M-7" value="4x2" style="text;html=1;align=center;verticalAlign=middle;resizable=0;points=[];autosize=1;strokeColor=none;fillColor=none;fontSize=16;" parent="1" vertex="1">
                    <mxGeometry x="540" y="290" width="50" height="30" as="geometry"/>
                </mxCell>
                <mxCell id="mTzwLqqa-nGqkQeWjX6M-9" value="&lt;div style=&quot;color: rgb(204, 204, 204); font-family: &amp;quot;Droid Sans Mono&amp;quot;, &amp;quot;monospace&amp;quot;, monospace; line-height: 24px; font-size: 14px;&quot;&gt;&lt;div&gt;方向向量V&lt;/div&gt;&lt;div&gt;(每个方向用4个值来确定，总共有2个方向)&lt;/div&gt;&lt;div&gt;(如1个方向是花萼长方向，另1个方向是花瓣宽方向)&lt;/div&gt;&lt;/div&gt;" style="text;html=1;align=center;verticalAlign=middle;resizable=0;points=[];autosize=1;strokeColor=none;fillColor=none;fontSize=11;fontColor=default;labelBackgroundColor=none;" parent="1" vertex="1">
                    <mxGeometry x="415" y="-55" width="350" height="90" as="geometry"/>
                </mxCell>
                <mxCell id="mTzwLqqa-nGqkQeWjX6M-11" value="" style="endArrow=classic;html=1;fontSize=12;fontColor=default;" parent="1" source="mTzwLqqa-nGqkQeWjX6M-9" edge="1">
                    <mxGeometry width="50" height="50" relative="1" as="geometry">
                        <mxPoint x="565" y="-60" as="sourcePoint"/>
                        <mxPoint x="590" y="-160" as="targetPoint"/>
                    </mxGeometry>
                </mxCell>
                <mxCell id="mTzwLqqa-nGqkQeWjX6M-13" value="" style="rounded=0;whiteSpace=wrap;html=1;labelBackgroundColor=none;fontSize=18;fontColor=default;fillColor=none;" parent="1" vertex="1">
                    <mxGeometry x="770" y="125" width="120" height="60" as="geometry"/>
                </mxCell>
                <mxCell id="pD43w8vQpC5bOukb5QFf-3" value="&lt;span style=&quot;&quot;&gt;&lt;br&gt;样本点矩阵X往方向矩阵V投影得到XV&amp;nbsp; -&amp;gt; 是个“标量”&lt;br&gt;&lt;br&gt;&lt;/span&gt;" style="text;html=1;strokeColor=none;fillColor=none;align=center;verticalAlign=middle;whiteSpace=wrap;rounded=0;labelBackgroundColor=none;fontSize=18;fontColor=default;comic=0;expand=1;container=0;backgroundOutline=0;autosize=0;overflow=fill;" parent="1" vertex="1">
                    <mxGeometry x="450" y="380" width="440" height="80" as="geometry"/>
                </mxCell>
                <mxCell id="mTzwLqqa-nGqkQeWjX6M-10" value="&lt;div style=&quot;font-family: &amp;quot;Droid Sans Mono&amp;quot;, &amp;quot;monospace&amp;quot;, monospace; line-height: 24px; font-size: 12px;&quot;&gt;&lt;div&gt;对正交矩阵来说，V是方阵&lt;/div&gt;&lt;div&gt;如果样本点有4个特征，则V就是4x4的方阵&lt;/div&gt;&lt;div&gt;还是4个特征，只不过这4个特征不再是(花瓣长宽、花萼长宽)，&lt;/div&gt;&lt;div&gt;而是其他自定义的方向（方向就是新的特征：可以是选择原有特征的某一个作为新特征，也可以是原有特征的某个组合）&lt;/div&gt;&lt;/div&gt;" style="text;html=1;align=center;verticalAlign=middle;resizable=0;points=[];autosize=1;strokeColor=none;fillColor=none;fontSize=14;fontColor=default;labelBackgroundColor=none;" parent="1" vertex="1">
                    <mxGeometry x="245" y="-270" width="660" height="110" as="geometry"/>
                </mxCell>
            </root>
        </mxGraphModel>
    </diagram>
    <diagram id="Ub1HZWV3o09gRBObfq5j" name="第 3 页">
        <mxGraphModel dx="743" dy="322" grid="1" gridSize="10" guides="1" tooltips="1" connect="1" arrows="1" fold="1" page="1" pageScale="1" pageWidth="827" pageHeight="1169" math="0" shadow="0">
            <root>
                <mxCell id="0"/>
                <mxCell id="1" parent="0"/>
                <mxCell id="xt4aiu7mEqfHEhJn02sa-1" value="as" style="ellipse;whiteSpace=wrap;html=1;comic=0;" vertex="1" parent="1">
                    <mxGeometry x="250" y="170" width="80" height="80" as="geometry"/>
                </mxCell>
                <mxCell id="xt4aiu7mEqfHEhJn02sa-2" value="as&lt;br&gt;发斯蒂芬&lt;br&gt;发斯蒂芬&lt;br&gt;&lt;br&gt;&lt;br&gt;&lt;br&gt;&lt;br&gt;&lt;br&gt;&lt;br&gt;发斯蒂芬" style="ellipse;html=1;comic=0;" vertex="1" parent="1">
                    <mxGeometry x="360" y="170" width="80" height="80" as="geometry"/>
                </mxCell>
            </root>
        </mxGraphModel>
    </diagram>
</mxfile>